<svg width="393" height="388" viewBox="0 0 393 388" fill="none" xmlns="http://www.w3.org/2000/svg">
<path d="M196 93C180.008 93 170.435 95.3385 164.35 98.2542C161.304 99.7158 159.141 101.25 157.687 102.822C156.225 104.393 155.303 106.702 155.303 106.702C155.064 107.289 154.906 107.903 154.831 108.529L150.78 158.543C150.726 158.85 150.833 159.347 150.78 159.683L150.308 164.71C150.263 165.165 150.263 165.622 150.308 166.077C150.308 190.192 170.869 209.923 196 209.923C221.131 209.923 241.692 190.192 241.692 166.077V164.937C241.693 164.861 241.693 164.786 241.692 164.71L237.169 108.529C237.094 107.903 236.935 107.289 236.696 106.702C236.696 106.702 235.775 104.393 234.313 102.822C232.858 101.243 230.696 99.7085 227.649 98.2542C221.565 95.3312 211.992 93 196 93ZM196 209.923C145.738 209.923 104.615 232.621 104.615 253.082V283H287.384V253.082C287.384 233.644 250.206 212.232 203.379 210.15C200.923 209.994 198.462 209.919 196 209.923ZM196 107.615C210.469 107.615 217.696 109.808 220.75 111.269C221.77 111.759 221.892 111.949 222.182 112.183L225.273 149.635C218.267 150.044 208.718 151.462 196 151.462C183.282 151.462 173.74 150.044 166.726 149.635L169.818 112.183C170.1 111.949 170.229 111.759 171.25 111.269C174.304 109.808 181.531 107.615 196 107.615ZM189.809 114.923V123.605H180.769V135.48H189.816V144.154H202.184V135.472H211.231V123.605H202.184V114.923H189.816H189.809ZM173.154 226.365L192.672 268.385H119.846V253.082C119.846 247.638 139.265 231.693 173.154 226.365ZM218.846 226.365C252.734 231.7 272.154 247.638 272.154 253.082V268.385H199.328L218.846 226.365Z" fill="#44C4A6"/>
<path d="M208.014 386.353C208.203 386.558 208.433 386.722 208.69 386.834C208.947 386.946 209.224 387.004 209.505 387.004C209.786 387.004 210.063 386.946 210.32 386.834C210.577 386.722 210.807 386.558 210.996 386.353L237.781 358.112C248.951 346.339 241.014 326 225.128 326C215.588 326 211.21 333.294 209.505 334.656C207.791 333.288 203.441 326 193.882 326C178.047 326 170.012 346.287 181.232 358.112L208.014 386.353Z" fill="#F32545" fill-opacity="0.74"/>
<path d="M357.688 110.621C357.688 112.761 355.468 114.5 352.739 114.5C350.01 114.5 347.79 112.76 347.79 110.621C347.849 109.821 348.149 109.057 348.651 108.433C349.153 107.808 349.832 107.353 350.599 107.128V86.089C350.717 85.608 350.993 85.1807 351.381 84.8753C351.769 84.5699 352.248 84.404 352.741 84.404C353.234 84.404 353.712 84.5699 354.101 84.8753C354.489 85.1807 354.764 85.608 354.882 86.089V107.124C355.649 107.35 356.328 107.806 356.83 108.431C357.331 109.056 357.63 109.82 357.688 110.621V110.621ZM320.771 73.6133C320.771 76.1572 318.131 78.2266 314.886 78.2266C311.64 78.2266 309 76.1564 309 73.6133C309 71.0702 311.64 69 314.886 69C318.131 69 320.771 71.0694 320.771 73.6133ZM316.487 73.6133C316.434 73.2353 316.237 72.8928 315.938 72.6581C315.638 72.4234 315.26 72.3149 314.882 72.3556C314.506 72.3167 314.129 72.426 313.831 72.6606C313.533 72.8951 313.337 73.2365 313.284 73.6133C313.337 73.9913 313.534 74.3338 313.833 74.5685C314.133 74.8032 314.511 74.9117 314.889 74.871C315.266 74.9108 315.644 74.8019 315.942 74.5673C316.241 74.3327 316.438 73.9907 316.491 73.6133H316.487ZM336.581 87.2997C336.119 87.0138 335.58 86.8817 335.039 86.9221C334.499 86.9625 333.985 87.1734 333.57 87.5247C330.67 90.2799 324.922 88.6752 324.922 85.0913V80.1652C324.922 76.5846 330.67 74.975 333.57 77.7318C333.985 78.0838 334.499 78.2951 335.04 78.3357C335.581 78.3762 336.121 78.2439 336.583 77.9577C336.791 77.8502 336.969 77.6934 337.102 77.501C337.235 77.3087 337.32 77.0865 337.348 76.8538C337.377 76.6211 337.348 76.3849 337.265 76.1658C337.182 75.9467 337.047 75.7513 336.872 75.5966C334.926 73.8604 332.401 72.9264 329.8 72.9812C324.748 72.9812 320.639 76.2051 320.639 80.1652V85.0929C320.639 89.053 324.749 92.2745 329.801 92.2745C332.4 92.3294 334.925 91.3963 336.87 89.6616C337.046 89.5068 337.181 89.3113 337.264 89.092C337.347 88.8728 337.375 88.6365 337.347 88.4037C337.318 88.1709 337.234 87.9486 337.1 87.7562C336.967 87.5638 336.788 87.407 336.581 87.2997V87.2997ZM372 76.5488C371.93 77.0532 371.668 77.5103 371.268 77.8233C370.868 78.1364 370.363 78.2807 369.86 78.2258H361.697V85.3546H367.181C367.684 85.2996 368.189 85.4441 368.589 85.7573C368.988 86.0705 369.251 86.5279 369.321 87.0323C369.251 87.5368 368.988 87.9942 368.589 88.3074C368.189 88.6206 367.684 88.765 367.181 88.7101H361.701V95.8389H364.509C365.013 95.7838 365.519 95.9284 365.919 96.2419C366.319 96.5555 366.581 97.0134 366.65 97.5183C366.581 98.0228 366.318 98.4801 365.919 98.7933C365.519 99.1065 365.014 99.251 364.51 99.1961H361.701V102.981C364.433 104.944 365.984 107.685 365.984 110.623C365.98 116.344 360.041 120.999 352.739 120.999C345.437 120.999 339.497 116.344 339.497 110.621C339.497 107.683 341.044 104.942 343.781 102.98V76.024C343.777 72.1508 347.795 69 352.739 69C357.179 69 360.874 71.5447 361.578 74.871H369.86C370.364 74.8161 370.869 74.9606 371.268 75.2738C371.668 75.587 371.93 76.0443 372 76.5488V76.5488ZM361.701 110.621C361.656 109.475 361.313 108.36 360.707 107.388C360.101 106.415 359.252 105.62 358.245 105.079C358.005 104.95 357.803 104.759 357.659 104.528C357.514 104.296 357.432 104.03 357.42 103.757V76.024C357.42 74.0009 355.319 72.3548 352.739 72.3548C350.159 72.3548 348.058 74.0009 348.058 76.024V103.757C348.046 104.03 347.964 104.296 347.82 104.528C347.675 104.759 347.473 104.95 347.233 105.079C346.226 105.62 345.378 106.415 344.771 107.388C344.165 108.36 343.822 109.475 343.777 110.621C343.777 114.494 347.798 117.645 352.739 117.645C357.681 117.645 361.701 114.494 361.701 110.621Z" fill="#EF5A75"/>
<g clip-path="url(#clip0)">
<path d="M58.9478 305.19V304.343H58.1048V305.19C57.9941 305.19 57.8844 305.212 57.7821 305.254C57.6799 305.297 57.5869 305.359 57.5086 305.438C57.4304 305.517 57.3683 305.61 57.3259 305.713C57.2835 305.816 57.2617 305.926 57.2617 306.037V308.154C57.2613 308.265 57.2828 308.376 57.325 308.479C57.3672 308.582 57.4292 308.676 57.5075 308.755C57.5858 308.834 57.6789 308.897 57.7814 308.939C57.8839 308.982 57.9938 309.004 58.1048 309.004H58.9478C59.1714 309.004 59.3858 308.915 59.5439 308.756C59.702 308.597 59.7909 308.382 59.7909 308.157V306.037C59.7909 305.812 59.702 305.597 59.5439 305.438C59.3858 305.279 59.1714 305.19 58.9478 305.19Z" fill="#EF5A75"/>
<path d="M58.9473 251.665H59.7903V254.629H58.9473V251.665Z" fill="#EF5A75"/>
<path d="M58.1038 254.842V251.454H54.7324V254.842H55.997V252.301H56.84V254.842H58.1038Z" fill="#EF5A75"/>
<path d="M28.4902 251.665H29.3333V254.629H28.4902V251.665Z" fill="#EF5A75"/>
<path d="M0.210938 307.308H4.42535V309.002H0.210938V307.308Z" fill="#EF5A75"/>
<path d="M22.9997 289.174C24.3001 289.199 25.5572 288.704 26.4947 287.798C27.4323 286.892 27.9735 285.649 27.9996 284.343V253.425H29.9992C30.0049 253.686 30.1133 253.934 30.3007 254.115C30.4881 254.296 30.7393 254.394 30.999 254.389H55.0001C55.2599 254.394 55.511 254.296 55.6984 254.115C55.8858 253.934 55.9943 253.686 55.9999 253.425H59.0002C59.2599 253.43 59.5111 253.331 59.6985 253.15C59.8859 252.97 59.9943 252.722 60 252.461V238.929C59.9943 238.668 59.8859 238.42 59.6985 238.239C59.5111 238.058 59.2599 237.959 59.0002 237.964H55.9999C55.9943 237.703 55.8858 237.455 55.6984 237.275C55.511 237.094 55.2599 236.995 55.0001 237H30.9998C30.7401 236.995 30.4889 237.094 30.3015 237.275C30.1141 237.455 30.0057 237.703 30 237.964H26.9998C26.74 237.959 26.4889 238.058 26.3015 238.239C26.114 238.42 26.0056 238.668 25.9999 238.929V284.337C25.9821 285.121 25.6566 285.865 25.0945 286.408C24.5325 286.951 23.7794 287.249 22.9997 287.236H21.9999V286.272C21.9942 286.011 21.8858 285.763 21.6984 285.582C21.511 285.401 21.2598 285.302 21.0001 285.307H19.0005V241.831C18.9744 240.524 18.4327 239.28 17.4945 238.375C16.5563 237.469 15.2984 236.974 13.9974 237H7.99851C6.69836 236.975 5.44168 237.47 4.50451 238.376C3.56733 239.282 3.02629 240.525 3.00024 241.831V285.31H0.999813C0.740056 285.306 0.488941 285.404 0.301521 285.585C0.114101 285.766 0.00567016 286.014 0 286.275V294.004C0.00567016 294.265 0.114101 294.513 0.301521 294.694C0.488941 294.875 0.740056 294.973 0.999813 294.968H20.9961C21.2558 294.973 21.507 294.875 21.6944 294.694C21.8818 294.513 21.9902 294.265 21.9959 294.004V293.04H33.0002C34.3007 293.065 35.5578 292.57 36.4953 291.664C37.4328 290.758 37.9741 289.515 38.0001 288.209V270.816C38.018 270.033 38.3434 269.288 38.9055 268.745C39.4676 268.202 40.2207 267.904 41.0003 267.917H48.9989C49.7785 267.904 50.5316 268.202 51.0937 268.745C51.6558 269.288 51.9812 270.033 51.9991 270.816V271.78H50.9993C50.7395 271.775 50.4884 271.874 50.301 272.055C50.1136 272.236 50.0051 272.484 49.9995 272.745V275.74C48.891 275.943 47.8867 276.526 47.1576 277.389C46.4285 278.252 46.0195 279.343 46.0002 280.475V290.14C46.0263 291.446 46.5675 292.689 47.505 293.595C48.4426 294.501 49.6997 294.996 51.0001 294.971H54.9993C56.2998 294.996 57.5568 294.501 58.4944 293.595C59.4319 292.689 59.9731 291.446 59.9992 290.14V280.48C59.9799 279.347 59.571 278.257 58.8418 277.394C58.1127 276.531 57.1084 275.948 55.9999 275.745V272.749C55.9943 272.488 55.8858 272.24 55.6984 272.059C55.511 271.878 55.2599 271.779 55.0001 271.784H54.0003V270.82C53.9743 269.513 53.433 268.271 52.4955 267.365C51.558 266.459 50.3009 265.964 49.0005 265.989H41.0019C39.7015 265.964 38.4444 266.459 37.5069 267.365C36.5694 268.271 36.0281 269.513 36.0021 270.82V288.208C35.9842 288.991 35.6588 289.736 35.0967 290.279C34.5346 290.822 33.7815 291.119 33.0018 291.107H21.9999V289.178L22.9997 289.174ZM55.9999 239.899H57.9996V251.493H55.9999V239.899ZM44.0022 252.459H42.0026V242.797H44.0022V252.459ZM52.0007 238.932H54.0003V252.459H52.0007V238.932ZM36.0037 238.932H50.0011V252.459H46.0018V241.831C45.9961 241.57 45.8877 241.322 45.7003 241.141C45.5129 240.96 45.2618 240.862 45.002 240.867H41.0027C40.743 240.862 40.4919 240.96 40.3045 241.141C40.117 241.322 40.0086 241.57 40.0029 241.831V252.459H36.0037V238.932ZM32.0044 238.932H34.0041V252.459H32.0044V238.932ZM28.0052 239.896H30.0048V251.493H28.0052V239.896ZM4.99987 281.444H7.99851V279.515H4.99987V275.647H7.99851V273.718H4.99987V269.85H7.99851V267.921H4.99987V264.053H7.99851V262.124H4.99987V258.256H7.99851V256.327H4.99987V252.459H7.99851V250.53H4.99987V246.662H7.99851V244.733H4.99987V241.831C5.01689 241.047 5.34178 240.302 5.9036 239.759C6.46543 239.215 7.21855 238.917 7.99851 238.929H13.9974C14.7771 238.916 15.5301 239.214 16.0922 239.757C16.6543 240.3 16.9798 241.044 16.9976 241.828V246.659H13.9974V248.588H16.9976V252.452H13.9974V254.381H16.9976V258.246H13.9974V260.175H16.9976V264.04H13.9974V265.969H16.9976V269.834H13.9974V271.763H16.9976V275.628H13.9974V277.556H16.9976V281.444H13.9974V283.373H16.9976V285.302H11.9978V242.797H9.99813V285.312H4.99987V281.444ZM19.9963 293.038H1.99963V287.241H19.9963V293.038ZM55.0001 277.58C55.7798 277.567 56.5328 277.865 57.0947 278.408C57.6567 278.952 57.9819 279.696 57.9996 280.48V290.14C57.9817 290.923 57.6562 291.668 57.0942 292.211C56.5321 292.754 55.779 293.051 54.9993 293.039H51.0001C50.2204 293.051 49.4673 292.754 48.9053 292.211C48.3432 291.668 48.0177 290.923 47.9998 290.14V280.48C48.0177 279.696 48.3432 278.952 48.9053 278.409C49.4673 277.866 50.2204 277.568 51.0001 277.581L55.0001 277.58ZM54.0003 273.715V275.644H52.0007V273.715H54.0003Z" fill="#EF5A75"/>
<path d="M58.3047 305.825H58.7262V307.519H58.3047V305.825Z" fill="#EF5A75"/>
<path d="M58.3047 307.941H58.7262V308.365H58.3047V307.941Z" fill="#EF5A75"/>
</g>
<path d="M234.116 32.9156C234.27 33.423 234.581 33.8689 235.003 34.1904C235.425 34.5118 235.937 34.6925 236.467 34.7069H247.499C248.186 34.6435 248.823 34.3261 249.288 33.817C249.752 33.3078 250.009 32.6435 250.009 31.9545C250.009 31.2654 249.752 30.6011 249.288 30.0919C248.823 29.5828 248.186 29.2654 247.499 29.202H238.207L233.21 14.4875C233.057 13.9903 232.756 13.5519 232.346 13.2316C231.936 12.9114 231.438 12.7248 230.919 12.697C230.4 12.6964 229.894 12.8563 229.47 13.1547C229.046 13.4532 228.725 13.8756 228.551 14.3639L224.038 25.9062L218.199 2.03704C218.081 1.45879 217.766 0.939493 217.307 0.567938C216.849 0.196382 216.275 -0.00434941 215.685 7.14937e-05C215.094 0.0441968 214.536 0.289541 214.104 0.695202C213.672 1.10086 213.393 1.64233 213.311 2.22934L206.326 42.0153L201.376 20.541C201.268 19.9943 200.987 19.4969 200.573 19.123C200.16 18.7491 199.637 18.5187 199.083 18.4661C198.53 18.451 197.988 18.617 197.539 18.9389C197.09 19.2607 196.759 19.7207 196.595 20.2486L192.995 30.7703H183.51C182.824 30.8337 182.186 31.1511 181.722 31.6603C181.257 32.1694 181 32.8337 181 33.5228C181 34.2119 181.257 34.8761 181.722 35.3853C182.186 35.8945 182.824 36.2119 183.51 36.2752H194.733C195.262 36.2602 195.773 36.0796 196.194 35.759C196.615 35.4384 196.925 34.9939 197.08 34.4879L198.472 30.4172L204.22 55.3562C204.33 55.9271 204.63 56.4437 205.072 56.8216C205.514 57.1994 206.071 57.416 206.652 57.4359C206.677 57.4359 206.701 57.4359 206.726 57.4359C207.321 57.3953 207.883 57.1513 208.318 56.7449C208.754 56.3384 209.036 55.7944 209.118 55.2043L216.174 15.0159L221.067 35.0051C221.179 35.5373 221.456 36.0204 221.859 36.3855C222.262 36.7506 222.771 36.979 223.311 37.038C223.848 37.0624 224.379 36.9143 224.826 36.6154C225.273 36.3165 225.612 35.8824 225.794 35.3767L230.693 22.8463L234.116 32.9156Z" fill="#EF5A75"/>
<g clip-path="url(#clip1)">
<path d="M66.5 62.8125C68.025 62.8125 69.4875 63.4381 70.5659 64.5516C71.6442 65.6651 72.25 67.1753 72.25 68.75V116.25C72.25 117.825 71.6442 119.335 70.5659 120.448C69.4875 121.562 68.025 122.188 66.5 122.188H43.5C41.975 122.188 40.5125 121.562 39.4341 120.448C38.3558 119.335 37.75 117.825 37.75 116.25V68.75C37.75 67.1753 38.3558 65.6651 39.4341 64.5516C40.5125 63.4381 41.975 62.8125 43.5 62.8125H66.5ZM43.5 56.875C40.45 56.875 37.5249 58.1261 35.3683 60.3531C33.2116 62.5801 32 65.6006 32 68.75V116.25C32 119.399 33.2116 122.42 35.3683 124.647C37.5249 126.874 40.45 128.125 43.5 128.125H66.5C69.55 128.125 72.4751 126.874 74.6317 124.647C76.7884 122.42 78 119.399 78 116.25V68.75C78 65.6006 76.7884 62.5801 74.6317 60.3531C72.4751 58.1261 69.55 56.875 66.5 56.875H43.5Z" fill="#EF5A75"/>
<path d="M55 116.251C56.525 116.251 57.9876 115.625 59.0659 114.512C60.1442 113.398 60.75 111.888 60.75 110.313C60.75 108.739 60.1442 107.229 59.0659 106.115C57.9876 105.002 56.525 104.376 55 104.376C53.4751 104.376 52.0125 105.002 50.9342 106.115C49.8559 107.229 49.25 108.739 49.25 110.313C49.25 111.888 49.8559 113.398 50.9342 114.512C52.0125 115.625 53.4751 116.251 55 116.251ZM18.1943 69.0953C18.5281 69.2777 18.8239 69.5262 19.0646 69.8267C19.3054 70.1271 19.4865 70.4736 19.5976 70.8463C19.7087 71.2191 19.7475 71.6108 19.712 71.999C19.6764 72.3873 19.5671 72.7645 19.3903 73.1091C16.3327 79.0846 14.7395 85.7426 14.75 92.501C14.75 99.5072 16.429 106.11 19.3903 111.893C19.7471 112.589 19.8216 113.403 19.5973 114.155C19.373 114.908 18.8683 115.538 18.1943 115.907C17.5202 116.275 16.7321 116.352 16.0031 116.12C15.2741 115.889 14.6641 115.368 14.3073 114.672C10.8114 107.84 8.98926 100.228 9.00005 92.501C9.00005 84.5031 10.9205 76.9506 14.3073 70.3303C14.4839 69.9856 14.7246 69.6802 15.0155 69.4316C15.3065 69.183 15.642 68.996 16.003 68.8813C16.364 68.7666 16.7433 68.7265 17.1193 68.7632C17.4953 68.7999 17.8606 68.9128 18.1943 69.0953ZM91.8058 69.0953C92.1395 68.9128 92.5048 68.7999 92.8808 68.7632C93.2568 68.7265 93.6361 68.7666 93.9971 68.8813C94.358 68.996 94.6936 69.183 94.9846 69.4316C95.2755 69.6802 95.5162 69.9856 95.6928 70.3303C99.1889 77.162 101.011 84.7741 101 92.501C101.011 100.228 99.1889 107.84 95.6928 114.672C95.3359 115.368 94.726 115.889 93.997 116.12C93.268 116.352 92.4799 116.275 91.8058 115.907C91.1318 115.538 90.6271 114.908 90.4028 114.155C90.1785 113.403 90.253 112.589 90.6098 111.893C93.6674 105.917 95.2606 99.2593 95.25 92.501C95.25 85.4947 93.571 78.8922 90.6098 73.1091C90.433 72.7645 90.3237 72.3873 90.2881 71.999C90.2526 71.6108 90.2914 71.2191 90.4025 70.8463C90.5136 70.4736 90.6947 70.1271 90.9354 69.8267C91.1762 69.5262 91.472 69.2777 91.8058 69.0953ZM26.5778 77.8591C26.9298 78.0008 27.2513 78.2128 27.5239 78.4829C27.7965 78.753 28.0149 79.076 28.1666 79.4333C28.3183 79.7907 28.4002 80.1753 28.4078 80.5654C28.4154 80.9555 28.3484 81.3433 28.2108 81.7066C26.9109 85.1469 26.2459 88.808 26.25 92.501C26.25 96.3128 26.94 99.9525 28.205 103.295C28.3655 103.662 28.452 104.059 28.4593 104.462C28.4665 104.864 28.3944 105.264 28.2474 105.637C28.1003 106.01 27.8813 106.348 27.6037 106.631C27.3261 106.913 26.9957 107.135 26.6326 107.282C26.2696 107.428 25.8814 107.497 25.4917 107.484C25.102 107.471 24.7189 107.376 24.3658 107.206C24.0127 107.035 23.6968 106.792 23.4376 106.491C23.1783 106.191 22.9809 105.839 22.8575 105.457C21.2962 101.328 20.4966 96.9335 20.5 92.501C20.5 87.935 21.3338 83.565 22.8575 79.5453C23.1348 78.8127 23.6823 78.2236 24.3798 77.9074C25.0773 77.5913 25.8679 77.5739 26.5778 77.8591ZM83.4223 77.8591C83.7742 77.717 84.1497 77.6478 84.5274 77.6557C84.9052 77.6635 85.2777 77.7481 85.6238 77.9047C85.9698 78.0613 86.2826 78.2868 86.5442 78.5684C86.8058 78.8499 87.011 79.1818 87.1483 79.5453C88.6663 83.565 89.5 87.935 89.5 92.501C89.5 97.0669 88.6663 101.437 87.1425 105.457C86.8392 106.15 86.2894 106.697 85.6068 106.984C84.9242 107.271 84.1608 107.277 83.4744 106.999C82.788 106.722 82.231 106.183 81.9185 105.494C81.606 104.804 81.5618 104.017 81.7951 103.295C83.0601 99.9525 83.75 96.3128 83.75 92.501C83.75 88.6891 83.0601 85.0494 81.7951 81.7066C81.5167 80.9736 81.5318 80.1564 81.837 79.4348C82.1422 78.7133 82.7124 78.1465 83.4223 77.8591Z" fill="#EF5A75"/>
</g>
<path d="M338.443 237C336.734 237 335.095 237.683 333.887 238.9C332.679 240.116 332 241.766 332 243.487V257.297C332.126 257.288 332.252 257.285 332.379 257.285H335.79V243.487C335.79 242.012 336.978 240.816 338.443 240.816H386.194C387.66 240.816 388.847 242.012 388.847 243.487V257.285H392.257C392.385 257.285 392.511 257.288 392.636 257.297V243.487C392.636 241.766 391.958 240.116 390.749 238.9C389.541 237.683 387.902 237 386.194 237H338.443ZM332 279.355V268.718C332.126 268.728 332.252 268.732 332.379 268.732H335.79V279.355C335.79 280.831 336.978 282.026 338.443 282.026H386.194C386.897 282.026 387.572 281.745 388.07 281.244C388.567 280.743 388.847 280.064 388.847 279.355V268.732H392.257C392.385 268.732 392.511 268.728 392.636 268.718V279.355C392.636 281.076 391.958 282.726 390.749 283.942C389.541 285.159 387.902 285.842 386.194 285.842H372.93V291.184H377.098C377.601 291.184 378.083 291.385 378.438 291.743C378.794 292.101 378.993 292.586 378.993 293.092C378.993 293.598 378.794 294.083 378.438 294.441C378.083 294.799 377.601 295 377.098 295H347.538C347.036 295 346.554 294.799 346.198 294.441C345.843 294.083 345.643 293.598 345.643 293.092C345.643 292.586 345.843 292.101 346.198 291.743C346.554 291.385 347.036 291.184 347.538 291.184H351.707V285.842H338.443C336.734 285.842 335.095 285.159 333.887 283.942C332.679 282.726 332 281.076 332 279.355V279.355ZM369.14 285.842H355.497V291.184H369.14V285.842ZM354.648 245.956C354.526 245.577 354.29 245.245 353.972 245.008C353.654 244.77 353.27 244.639 352.874 244.633C352.478 244.627 352.09 244.745 351.765 244.972C351.44 245.199 351.193 245.523 351.06 245.898L345.557 261.421H333.895C333.392 261.421 332.91 261.622 332.555 261.98C332.2 262.338 332 262.823 332 263.329C332 263.835 332.2 264.32 332.555 264.678C332.91 265.036 333.392 265.237 333.895 265.237H346.892C347.693 265.237 348.408 264.73 348.677 263.97L352.747 252.488L360.514 276.883C360.63 277.248 360.853 277.57 361.154 277.805C361.454 278.041 361.818 278.181 362.198 278.205C362.579 278.229 362.957 278.138 363.285 277.942C363.613 277.747 363.874 277.456 364.036 277.109L372.843 258.106L375.341 264.069C375.638 264.776 376.327 265.235 377.088 265.235H390.741C391.244 265.235 391.726 265.034 392.081 264.677C392.437 264.319 392.636 263.833 392.636 263.327C392.636 262.821 392.437 262.336 392.081 261.978C391.726 261.621 391.244 261.42 390.741 261.42H378.344L374.676 252.665C374.534 252.324 374.296 252.033 373.992 251.826C373.689 251.618 373.332 251.504 372.965 251.497C372.598 251.49 372.238 251.591 371.926 251.786C371.615 251.982 371.367 252.264 371.212 252.599L362.647 271.083L354.648 245.955V245.956Z" fill="#EF5A75"/>
<defs>
<clipPath id="clip0">
<rect width="60" height="72" fill="white" transform="translate(0 237)"/>
</clipPath>
<clipPath id="clip1">
<rect width="92" height="95" fill="white" transform="translate(9 45)"/>
</clipPath>
</defs>
</svg>
