<svg width="70" height="58" viewBox="0 0 70 58" fill="none" xmlns="http://www.w3.org/2000/svg">
<path d="M53.1158 32.9156C53.2704 33.423 53.5807 33.8689 54.0026 34.1904C54.4245 34.5118 54.9368 34.6925 55.4671 34.7069H66.4995C67.1857 34.6435 67.8234 34.3261 68.2877 33.817C68.752 33.3078 69.0094 32.6435 69.0094 31.9545C69.0094 31.2654 68.752 30.6011 68.2877 30.0919C67.8234 29.5828 67.1857 29.2654 66.4995 29.202H57.2075L52.21 14.4875C52.0575 13.9903 51.7559 13.5519 51.346 13.2316C50.9362 12.9114 50.4379 12.7248 49.9185 12.697C49.4001 12.6964 48.8942 12.8563 48.4703 13.1547C48.0464 13.4532 47.7253 13.8756 47.5511 14.3639L43.0384 25.9062L37.199 2.03704C37.081 1.45879 36.7658 0.939493 36.3073 0.567938C35.8488 0.196382 35.2754 -0.00434941 34.6853 7.14937e-05C34.0944 0.0441968 33.5364 0.289541 33.1044 0.695202C32.6724 1.10086 32.3925 1.64233 32.3114 2.22934L25.3262 42.0153L20.3756 20.541C20.268 19.9943 19.9867 19.4969 19.5735 19.123C19.1603 18.7491 18.6373 18.5187 18.0825 18.4661C17.5302 18.451 16.9882 18.617 16.5391 18.9389C16.09 19.2607 15.7586 19.7207 15.5955 20.2486L11.995 30.7703H2.50994C1.82377 30.8337 1.18601 31.1511 0.721699 31.6603C0.257386 32.1694 0 32.8337 0 33.5228C0 34.2119 0.257386 34.8761 0.721699 35.3853C1.18601 35.8945 1.82377 36.2119 2.50994 36.2752H13.7331C14.2621 36.2602 14.773 36.0796 15.1941 35.759C15.6151 35.4384 15.9251 34.9939 16.0803 34.4879L17.4717 30.4172L23.2198 55.3562C23.3296 55.9271 23.6301 56.4437 24.0719 56.8216C24.5138 57.1994 25.0708 57.416 25.6519 57.4359C25.6769 57.4359 25.7012 57.4359 25.7262 57.4359C26.3206 57.3953 26.8828 57.1513 27.3184 56.7449C27.754 56.3384 28.0363 55.7944 28.1179 55.2043L35.1741 15.0159L40.0666 35.0051C40.1787 35.5373 40.4561 36.0204 40.8592 36.3855C41.2624 36.7506 41.7705 36.979 42.3112 37.038C42.8482 37.0624 43.3789 36.9143 43.8257 36.6154C44.2725 36.3165 44.6119 35.8824 44.7942 35.3767L49.6931 22.8463L53.1158 32.9156Z" fill="#EF5874"/>
</svg>
