<svg width="60" height="72" viewBox="0 0 60 72" fill="none" xmlns="http://www.w3.org/2000/svg">
<g clip-path="url(#clip0)">
<path d="M58.9478 68.1899V67.3428H58.1048V68.1899C57.9941 68.1899 57.8844 68.2118 57.7821 68.2543C57.6799 68.2969 57.5869 68.3593 57.5086 68.438C57.4304 68.5166 57.3683 68.61 57.3259 68.7128C57.2835 68.8156 57.2617 68.9257 57.2617 69.0369V71.1539C57.2613 71.2654 57.2828 71.3759 57.325 71.479C57.3672 71.5822 57.4292 71.6759 57.5075 71.7549C57.5858 71.8339 57.6789 71.8966 57.7814 71.9394C57.8839 71.9821 57.9938 72.0042 58.1048 72.0042H58.9478C59.1714 72.0042 59.3858 71.9149 59.5439 71.7561C59.702 71.5972 59.7909 71.3817 59.7909 71.1571V69.0369C59.7909 68.8123 59.702 68.5968 59.5439 68.438C59.3858 68.2791 59.1714 68.1899 58.9478 68.1899Z" fill="#EF5874"/>
<path d="M58.9473 14.665H59.7903V17.629H58.9473V14.665Z" fill="#EF5874"/>
<path d="M58.1038 17.8416V14.4541H54.7324V17.8416H55.997V15.3012H56.84V17.8416H58.1038Z" fill="#EF5874"/>
<path d="M28.4902 14.665H29.3333V17.629H28.4902V14.665Z" fill="#EF5874"/>
<path d="M0.210938 70.3076H4.42535V72.0018H0.210938V70.3076Z" fill="#EF5874"/>
<path d="M22.9997 52.1738C24.3001 52.1988 25.5572 51.704 26.4947 50.7981C27.4323 49.8923 27.9735 48.6495 27.9996 47.3428V16.425H29.9992C30.0049 16.6859 30.1133 16.934 30.3007 17.1148C30.4881 17.2956 30.7393 17.3943 30.999 17.3894H55.0001C55.2599 17.3943 55.511 17.2956 55.6984 17.1148C55.8858 16.934 55.9943 16.6859 55.9999 16.425H59.0002C59.2599 16.4299 59.5111 16.3312 59.6985 16.1504C59.8859 15.9696 59.9943 15.7215 60 15.4605V1.92884C59.9943 1.66785 59.8859 1.41977 59.6985 1.23898C59.5111 1.0582 59.2599 0.959458 59.0002 0.964413H55.9999C55.9943 0.703424 55.8858 0.455343 55.6984 0.274557C55.511 0.0937705 55.2599 -0.0049682 55.0001 -1.26432e-05H30.9998C30.7401 -0.0049682 30.4889 0.0937705 30.3015 0.274557C30.1141 0.455343 30.0057 0.703424 30 0.964413H26.9998C26.74 0.959458 26.4889 1.0582 26.3015 1.23898C26.114 1.41977 26.0056 1.66785 25.9999 1.92884V47.3372C25.9821 48.1205 25.6566 48.865 25.0945 49.4081C24.5325 49.9512 23.7794 50.2488 22.9997 50.2361H21.9999V49.2717C21.9942 49.0107 21.8858 48.7626 21.6984 48.5818C21.511 48.401 21.2598 48.3023 21.0001 48.3073H19.0005V4.83096C18.9744 3.52375 18.4327 2.28047 17.4945 1.37452C16.5563 0.468574 15.2984 -0.0258485 13.9974 -1.26432e-05H7.99851C6.69836 -0.0245543 5.44168 0.470444 4.50451 1.37625C3.56733 2.28206 3.02629 3.52461 3.00024 4.83096V48.3105H0.999813C0.740056 48.3055 0.488941 48.4043 0.301521 48.585C0.114101 48.7658 0.00567016 49.0139 0 49.2749V57.004C0.00567016 57.265 0.114101 57.513 0.301521 57.6938C0.488941 57.8746 0.740056 57.9734 0.999813 57.9684H20.9961C21.2558 57.9734 21.507 57.8746 21.6944 57.6938C21.8818 57.513 21.9902 57.265 21.9959 57.004V56.0395H33.0002C34.3007 56.0645 35.5578 55.5697 36.4953 54.6639C37.4328 53.758 37.9741 52.5152 38.0001 51.2086V33.816C38.018 33.0326 38.3434 32.2882 38.9055 31.7451C39.4676 31.202 40.2207 30.9043 41.0003 30.9171H48.9989C49.7785 30.9043 50.5316 31.202 51.0937 31.7451C51.6558 32.2882 51.9812 33.0326 51.9991 33.816V34.7804H50.9993C50.7395 34.7754 50.4884 34.8742 50.301 35.055C50.1136 35.2357 50.0051 35.4838 49.9995 35.7448V38.7402C48.891 38.9432 47.8867 39.5259 47.1576 40.3891C46.4285 41.2523 46.0195 42.3427 46.0002 43.4747V53.1398C46.0263 54.4465 46.5675 55.6893 47.505 56.5951C48.4426 57.501 49.6997 57.9958 51.0001 57.9708H54.9993C56.2998 57.9958 57.5568 57.501 58.4944 56.5951C59.4319 55.6893 59.9731 54.4465 59.9992 53.1398V43.4795C59.9799 42.3475 59.571 41.2571 58.8418 40.394C58.1127 39.5308 57.1084 38.9481 55.9999 38.745V35.7488C55.9943 35.4878 55.8858 35.2398 55.6984 35.059C55.511 34.8782 55.2599 34.7795 55.0001 34.7844H54.0003V33.82C53.9743 32.5133 53.433 31.2706 52.4955 30.3647C51.558 29.4588 50.3009 28.964 49.0005 28.989H41.0019C39.7015 28.964 38.4444 29.4588 37.5069 30.3647C36.5694 31.2706 36.0281 32.5133 36.0021 33.82V51.2078C35.9842 51.9911 35.6588 52.7355 35.0967 53.2786C34.5346 53.8217 33.7815 54.1194 33.0018 54.1067H21.9999V52.1778L22.9997 52.1738ZM55.9999 2.89889H57.9996V14.4929H55.9999V2.89889ZM44.0022 15.4589H42.0026V5.79699H44.0022V15.4589ZM52.0007 1.93205H54.0003V15.4589H52.0007V1.93205ZM36.0037 1.93205H50.0011V15.4589H46.0018V4.83096C45.9961 4.56997 45.8877 4.32189 45.7003 4.1411C45.5129 3.96031 45.2618 3.86157 45.002 3.86653H41.0027C40.743 3.86157 40.4919 3.96031 40.3045 4.1411C40.117 4.32189 40.0086 4.56997 40.0029 4.83096V15.4589H36.0037V1.93205ZM32.0044 1.93205H34.0041V15.4589H32.0044V1.93205ZM28.0052 2.89648H30.0048V14.4929H28.0052V2.89648ZM4.99987 44.4439H7.99851V42.5151H4.99987V38.6469H7.99851V36.7181H4.99987V32.8499H7.99851V30.9211H4.99987V27.0529H7.99851V25.1241H4.99987V21.2559H7.99851V19.3271H4.99987V15.4589H7.99851V13.5301H4.99987V9.66193H7.99851V7.73307H4.99987V4.83096C5.01689 4.04734 5.34178 3.30233 5.9036 2.75859C6.46543 2.21485 7.21855 1.91655 7.99851 1.92884H13.9974C14.7771 1.91611 15.5301 2.21378 16.0922 2.75687C16.6543 3.29997 16.9798 4.04441 16.9976 4.82774V9.65871H13.9974V11.5876H16.9976V15.4525H13.9974V17.3813H16.9976V21.2463H13.9974V23.1751H16.9976V27.0401H13.9974V28.9689H16.9976V32.8339H13.9974V34.7627H16.9976V38.6276H13.9974V40.5565H16.9976V44.4439H13.9974V46.3728H16.9976V48.3016H11.9978V5.79699H9.99813V48.3121H4.99987V44.4439ZM19.9963 56.0379H1.99963V50.2409H19.9963V56.0379ZM55.0001 40.5798C55.7798 40.5673 56.5328 40.8652 57.0947 41.4084C57.6567 41.9517 57.9819 42.6962 57.9996 43.4795V53.1398C57.9817 53.9232 57.6562 54.6676 57.0942 55.2107C56.5321 55.7538 55.779 56.0515 54.9993 56.0387H51.0001C50.2204 56.0515 49.4673 55.7538 48.9053 55.2107C48.3432 54.6676 48.0177 53.9232 47.9998 53.1398V43.4795C48.0177 42.6962 48.3432 41.9517 48.9053 41.4086C49.4673 40.8655 50.2204 40.5679 51.0001 40.5806L55.0001 40.5798ZM54.0003 36.7149V38.6437H52.0007V36.7149H54.0003Z" fill="#EF5874"/>
<path d="M58.3047 68.8252H58.7262V70.5194H58.3047V68.8252Z" fill="#EF5874"/>
<path d="M58.3047 70.9414H58.7262V71.365H58.3047V70.9414Z" fill="#EF5874"/>
</g>
<defs>
<clipPath id="clip0">
<rect width="60" height="72" fill="white"/>
</clipPath>
</defs>
</svg>
