<svg width="70" height="59" viewBox="0 0 70 59" fill="none" xmlns="http://www.w3.org/2000/svg">
<path d="M54.1002 33.8435C54.2548 34.3509 54.565 34.7969 54.987 35.1183C55.4089 35.4398 55.9212 35.6205 56.4514 35.6349H67.4839C68.17 35.5715 68.8078 35.2541 69.2721 34.7449C69.7364 34.2358 69.9938 33.5715 69.9938 32.8824C69.9938 32.1933 69.7364 31.5291 69.2721 31.0199C68.8078 30.5107 68.17 30.1934 67.4839 30.13H58.1919L53.1944 15.4155C53.0418 14.9182 52.7403 14.4799 52.3304 14.1596C51.9206 13.8394 51.4223 13.6527 50.9029 13.625C50.3845 13.6244 49.8786 13.7843 49.4547 14.0827C49.0308 14.3812 48.7097 14.8036 48.5355 15.2919L44.0228 26.8342L38.1834 2.96502C38.0654 2.38677 37.7502 1.86747 37.2917 1.49592C36.8332 1.12436 36.2598 0.923629 35.6697 0.92805C35.0787 0.972175 34.5208 1.21752 34.0888 1.62318C33.6568 2.02884 33.3769 2.57031 33.2958 3.15732L26.3106 42.9432L21.36 21.469C21.2524 20.9222 20.9711 20.4248 20.5579 20.0509C20.1446 19.677 19.6217 19.4466 19.0669 19.3941C18.5146 19.379 17.9726 19.545 17.5235 19.8669C17.0744 20.1887 16.743 20.6487 16.5799 21.1765L12.9794 31.6983H3.49431C2.80814 31.7617 2.17039 32.0791 1.70607 32.5882C1.24176 33.0974 0.984375 33.7617 0.984375 34.4508C0.984375 35.1399 1.24176 35.8041 1.70607 36.3133C2.17039 36.8224 2.80814 37.1398 3.49431 37.2032H14.7174C15.2464 37.1881 15.7574 37.0076 16.1784 36.687C16.5995 36.3664 16.9094 35.9218 17.0647 35.4159L18.456 31.3452L24.2042 56.2841C24.314 56.855 24.6145 57.3717 25.0563 57.7496C25.4982 58.1274 26.0552 58.344 26.6362 58.3639C26.6613 58.3639 26.6855 58.3639 26.7106 58.3639C27.3049 58.3233 27.8672 58.0793 28.3028 57.6728C28.7383 57.2664 29.0207 56.7224 29.1023 56.1322L36.1585 15.9439L41.051 35.933C41.1631 36.4652 41.4405 36.9484 41.8436 37.3135C42.2467 37.6786 42.7549 37.907 43.2956 37.966C43.8326 37.9904 44.3633 37.8423 44.8101 37.5434C45.2569 37.2445 45.5963 36.8104 45.7786 36.3047L50.6775 23.7743L54.1002 33.8435Z" fill="#F44547"/>
</svg>
