<svg width="63" height="52" viewBox="0 0 63 52" fill="none" xmlns="http://www.w3.org/2000/svg">
<path d="M48.6878 41.6213C48.6878 43.7606 46.4676 45.5001 43.739 45.5001C41.0105 45.5001 38.7902 43.7598 38.7902 41.6213C38.8486 40.8206 39.1488 40.057 39.6507 39.4326C40.1527 38.8083 40.8324 38.3529 41.5989 38.1276V17.089C41.7173 16.608 41.9926 16.1807 42.3808 15.8753C42.769 15.5699 43.2477 15.404 43.7407 15.404C44.2336 15.404 44.7124 15.5699 45.1005 15.8753C45.4887 16.1807 45.764 16.608 45.8825 17.089V38.1243C46.6488 38.3504 47.3282 38.8065 47.8296 39.4315C48.3309 40.0564 48.6304 40.8205 48.6878 41.6213ZM11.7711 4.6133C11.7711 7.1572 9.13059 9.22661 5.88554 9.22661C2.64049 9.22661 0 7.15639 0 4.6133C0 2.07022 2.64049 0 5.88554 0C9.13059 0 11.7711 2.06941 11.7711 4.6133ZM7.48745 4.6133C7.43446 4.2353 7.23741 3.89279 6.9379 3.65811C6.6384 3.42343 6.25989 3.31495 5.88231 3.35557C5.50577 3.31674 5.1289 3.42605 4.83082 3.66056C4.53274 3.89507 4.33662 4.23654 4.28362 4.6133C4.33662 4.99131 4.53367 5.33381 4.83317 5.56849C5.13268 5.80317 5.51119 5.91166 5.88877 5.87103C6.26583 5.91076 6.64352 5.80186 6.94231 5.56727C7.24111 5.33267 7.43769 4.99068 7.49069 4.6133H7.48745ZM27.5809 18.2997C27.1194 18.0138 26.5799 17.8817 26.0393 17.9221C25.4987 17.9625 24.9846 18.1734 24.5702 18.5247C21.6703 21.2799 15.9222 19.6752 15.9222 16.0913V11.1652C15.9222 7.58457 21.6703 5.97503 24.5702 8.7318C24.9847 9.08377 25.4993 9.29512 26.0404 9.33568C26.5814 9.37624 27.1215 9.24395 27.5833 8.95767C27.7906 8.85017 27.9686 8.69342 28.1019 8.50104C28.2351 8.30865 28.3197 8.08646 28.3481 7.85376C28.3766 7.62107 28.348 7.38491 28.265 7.16582C28.182 6.94672 28.0471 6.75132 27.8719 6.59658C25.9264 4.86044 23.4007 3.9264 20.7998 3.98119C15.7476 3.98119 11.6385 7.20514 11.6385 11.1652V16.0929C11.6385 20.053 15.7492 23.2745 20.8006 23.2745C23.4004 23.3294 25.925 22.3963 27.8702 20.6616C28.0456 20.5068 28.1807 20.3113 28.2637 20.0921C28.3468 19.8728 28.3753 19.6365 28.3467 19.4037C28.3182 19.1709 28.2335 18.9486 28.1001 18.7562C27.9666 18.5638 27.7884 18.407 27.5809 18.2997ZM63 7.54882C62.9301 8.05315 62.6675 8.51028 62.268 8.82333C61.8685 9.13637 61.3634 9.28073 60.8598 9.22579H52.6967V16.3546H58.1805C58.6842 16.2996 59.1894 16.4441 59.589 16.7573C59.9885 17.0705 60.251 17.5279 60.3207 18.0323C60.251 18.5368 59.9885 18.9942 59.589 19.3074C59.1894 19.6206 58.6842 19.765 58.1805 19.7101H52.7007V26.8389H55.5093C56.0134 26.7838 56.519 26.9284 56.9188 27.2419C57.3185 27.5555 57.5809 28.0134 57.6503 28.5183C57.5806 29.0228 57.3181 29.4801 56.9186 29.7933C56.519 30.1065 56.0138 30.251 55.5101 30.1961H52.7007V33.9815C55.4333 35.9444 56.9843 38.685 56.9843 41.6229C56.9803 47.3444 51.0406 51.9992 43.739 51.9992C36.4375 51.9992 30.497 47.3444 30.497 41.6213C30.497 38.6833 32.0439 35.942 34.7806 33.9798V7.02395C34.7774 3.15083 38.7951 0 43.739 0C48.1795 0 51.8739 2.54471 52.5779 5.87103H60.8598C61.3635 5.81612 61.8687 5.96058 62.2682 6.27379C62.6678 6.58701 62.9302 7.04434 63 7.54882ZM52.7007 41.6213C52.6558 40.4747 52.3131 39.3599 51.7068 38.3877C51.1005 37.4154 50.2517 36.6196 49.2447 36.0793C49.0051 35.9496 48.803 35.7594 48.6585 35.5275C48.514 35.2956 48.4319 35.03 48.4203 34.7566V7.02395C48.4203 5.00086 46.3189 3.35476 43.739 3.35476C41.1592 3.35476 39.0578 5.00086 39.0578 7.02395V34.7566C39.0462 35.03 38.9641 35.2956 38.8196 35.5275C38.675 35.7594 38.473 35.9496 38.2334 36.0793C37.2264 36.6196 36.3775 37.4154 35.7713 38.3877C35.165 39.3599 34.8223 40.4747 34.7774 41.6213C34.7774 45.4944 38.7975 48.6452 43.739 48.6452C48.6806 48.6452 52.7007 45.4944 52.7007 41.6213Z" fill="#EF5874"/>
</svg>
