<svg width="60" height="58" viewBox="0 0 60 58" fill="none" xmlns="http://www.w3.org/2000/svg">
<path d="M22.9997 52.1736C24.3001 52.1985 25.5572 51.7037 26.4947 50.7979C27.4323 49.892 27.9735 48.6492 27.9996 47.3426V16.4247H29.9992C30.0049 16.6857 30.1133 16.9338 30.3007 17.1146C30.4881 17.2954 30.7393 17.3941 30.999 17.3891H55.0001C55.2599 17.3941 55.511 17.2954 55.6984 17.1146C55.8858 16.9338 55.9943 16.6857 55.9999 16.4247H59.0002C59.2599 16.4297 59.5111 16.3309 59.6985 16.1501C59.8859 15.9694 59.9943 15.7213 60 15.4603V1.92859C59.9943 1.66761 59.8859 1.41952 59.6985 1.23874C59.5111 1.05795 59.2599 0.959213 59.0002 0.964169H55.9999C55.9943 0.70318 55.8858 0.455099 55.6984 0.274312C55.511 0.0935263 55.2599 -0.00521234 55.0001 -0.000256784H30.9998C30.7401 -0.00521234 30.4889 0.0935263 30.3015 0.274312C30.1141 0.455099 30.0057 0.70318 30 0.964169H26.9998C26.74 0.959213 26.4889 1.05795 26.3015 1.23874C26.114 1.41952 26.0056 1.66761 25.9999 1.92859V47.337C25.9821 48.1203 25.6566 48.8647 25.0945 49.4078C24.5325 49.9509 23.7794 50.2486 22.9997 50.2359H21.9999V49.2714C21.9942 49.0105 21.8858 48.7624 21.6984 48.5816C21.511 48.4008 21.2598 48.3021 21.0001 48.307H19.0005V4.83071C18.9744 3.52351 18.4327 2.28022 17.4945 1.37428C16.5563 0.46833 15.2984 -0.0260926 13.9974 -0.000256784H7.99851C6.69836 -0.0247984 5.44168 0.470199 4.50451 1.37601C3.56733 2.28182 3.02629 3.52436 3.00024 4.83071V48.3102H0.999813C0.740056 48.3053 0.488941 48.404 0.301521 48.5848C0.114101 48.7656 0.00567016 49.0137 0 49.2747V57.0037C0.00567016 57.2647 0.114101 57.5128 0.301521 57.6936C0.488941 57.8744 0.740056 57.9731 0.999813 57.9682H20.9961C21.2558 57.9731 21.507 57.8744 21.6944 57.6936C21.8818 57.5128 21.9902 57.2647 21.9959 57.0037V56.0393H33.0002C34.3007 56.0643 35.5578 55.5695 36.4953 54.6636C37.4328 53.7578 37.9741 52.515 38.0001 51.2083V33.8157C38.018 33.0324 38.3434 32.2879 38.9055 31.7449C39.4676 31.2018 40.2207 30.9041 41.0003 30.9168H48.9989C49.7785 30.9041 50.5316 31.2018 51.0937 31.7449C51.6558 32.2879 51.9812 33.0324 51.9991 33.8157V34.7801H50.9993C50.7395 34.7752 50.4884 34.8739 50.301 35.0547C50.1136 35.2355 50.0051 35.4836 49.9995 35.7446V38.7399C48.891 38.943 47.8867 39.5257 47.1576 40.3889C46.4285 41.2521 46.0195 42.3424 46.0002 43.4744V53.1396C46.0263 54.4462 46.5675 55.689 47.505 56.5949C48.4426 57.5007 49.6997 57.9955 51.0001 57.9706H54.9993C56.2998 57.9955 57.5568 57.5007 58.4944 56.5949C59.4319 55.689 59.9731 54.4462 59.9992 53.1396V43.4793C59.9799 42.3472 59.571 41.2569 58.8418 40.3937C58.1127 39.5305 57.1084 38.9478 55.9999 38.7447V35.7486C55.9943 35.4876 55.8858 35.2395 55.6984 35.0587C55.511 34.8779 55.2599 34.7792 55.0001 34.7842H54.0003V33.8197C53.9743 32.5131 53.433 31.2703 52.4955 30.3645C51.558 29.4586 50.3009 28.9638 49.0005 28.9888H41.0019C39.7015 28.9638 38.4444 29.4586 37.5069 30.3645C36.5694 31.2703 36.0281 32.5131 36.0021 33.8197V51.2075C35.9842 51.9909 35.6588 52.7353 35.0967 53.2784C34.5346 53.8215 33.7815 54.1192 33.0018 54.1064H21.9999V52.1776L22.9997 52.1736ZM55.9999 2.89865H57.9996V14.4927H55.9999V2.89865ZM44.0022 15.4587H42.0026V5.79675H44.0022V15.4587ZM52.0007 1.93181H54.0003V15.4587H52.0007V1.93181ZM36.0037 1.93181H50.0011V15.4587H46.0018V4.83071C45.9961 4.56972 45.8877 4.32164 45.7003 4.14086C45.5129 3.96007 45.2618 3.86133 45.002 3.86629H41.0027C40.743 3.86133 40.4919 3.96007 40.3045 4.14086C40.117 4.32164 40.0086 4.56972 40.0029 4.83071V15.4587H36.0037V1.93181ZM32.0044 1.93181H34.0041V15.4587H32.0044V1.93181ZM28.0052 2.89624H30.0048V14.4927H28.0052V2.89624ZM4.99987 44.4437H7.99851V42.5148H4.99987V38.6467H7.99851V36.7178H4.99987V32.8497H7.99851V30.9208H4.99987V27.0527H7.99851V25.1238H4.99987V21.2557H7.99851V19.3268H4.99987V15.4587H7.99851V13.5298H4.99987V9.66168H7.99851V7.73283H4.99987V4.83071C5.01689 4.0471 5.34178 3.30208 5.9036 2.75834C6.46543 2.2146 7.21855 1.91631 7.99851 1.92859H13.9974C14.7771 1.91587 15.5301 2.21353 16.0922 2.75663C16.6543 3.29973 16.9798 4.04417 16.9976 4.8275V9.65847H13.9974V11.5873H16.9976V15.4523H13.9974V17.3811H16.9976V21.246H13.9974V23.1749H16.9976V27.0398H13.9974V28.9687H16.9976V32.8336H13.9974V34.7625H16.9976V38.6274H13.9974V40.5563H16.9976V44.4437H13.9974V46.3725H16.9976V48.3014H11.9978V5.79675H9.99813V48.3118H4.99987V44.4437ZM19.9963 56.0377H1.99963V50.2407H19.9963V56.0377ZM55.0001 40.5796C55.7798 40.5671 56.5328 40.8649 57.0947 41.4082C57.6567 41.9514 57.9819 42.6959 57.9996 43.4793V53.1396C57.9817 53.9229 57.6562 54.6674 57.0942 55.2105C56.5321 55.7536 55.779 56.0512 54.9993 56.0385H51.0001C50.2204 56.0512 49.4673 55.7536 48.9053 55.2105C48.3432 54.6674 48.0177 53.9229 47.9998 53.1396V43.4793C48.0177 42.6959 48.3432 41.9515 48.9053 41.4084C49.4673 40.8653 50.2204 40.5676 51.0001 40.5804L55.0001 40.5796ZM54.0003 36.7146V38.6435H52.0007V36.7146H54.0003Z" fill="#F87677"/>
</svg>
