<?xml version="1.0" encoding="UTF-8" standalone="no"?>
<!-- Created with Inkscape (http://www.inkscape.org/) -->

<svg
   width="210mm"
   height="297mm"
   viewBox="0 0 210 297"
   version="1.1"
   id="svg914"
   inkscape:version="1.1 (c68e22c387, 2021-05-23)"
   sodipodi:docname="BPlogo.svg"
   xmlns:inkscape="http://www.inkscape.org/namespaces/inkscape"
   xmlns:sodipodi="http://sodipodi.sourceforge.net/DTD/sodipodi-0.dtd"
   xmlns="http://www.w3.org/2000/svg"
   xmlns:svg="http://www.w3.org/2000/svg">
  <sodipodi:namedview
     id="namedview916"
     pagecolor="#ffffff"
     bordercolor="#666666"
     borderopacity="1.0"
     inkscape:pageshadow="2"
     inkscape:pageopacity="0.0"
     inkscape:pagecheckerboard="0"
     inkscape:document-units="mm"
     showgrid="false"
     inkscape:zoom="0.46324355"
     inkscape:cx="-157.58449"
     inkscape:cy="560.1805"
     inkscape:window-width="1366"
     inkscape:window-height="705"
     inkscape:window-x="-8"
     inkscape:window-y="-8"
     inkscape:window-maximized="1"
     inkscape:current-layer="layer1" />
  <defs
     id="defs911" />
  <g
     inkscape:label="Layer 1"
     inkscape:groupmode="layer"
     id="layer1">
    <g
       id="g1344"
       transform="translate(-142.78846,15.421154)"
       style="fill:#0000ff">
      <path
         style="fill:#0000ff;stroke-width:0.358578"
         d="m 62.383537,180.60395 c 2.842369,-0.0602 7.3926,-0.0601 10.111624,3.3e-4 2.719024,0.0604 0.39345,0.10968 -5.167943,0.1095 -5.561394,-1.8e-4 -7.78605,-0.0496 -4.943681,-0.10983 z m 50.897403,0.006 c 0.84414,-0.075 2.22546,-0.075 3.0696,0 0.84414,0.075 0.15348,0.1363 -1.5348,0.1363 -1.68828,0 -2.37894,-0.0613 -1.5348,-0.1363 z m -30.533705,-2.1404 c 1.727888,-0.0651 4.653037,-0.0654 6.50033,-7.1e-4 1.847292,0.0648 0.433565,0.11803 -3.141617,0.11841 -3.575181,3.5e-4 -5.086602,-0.0526 -3.358713,-0.11773 z m 1.733631,-3.07398 c 0,-0.0739 0.284389,-0.35432 0.631976,-0.62308 0.572772,-0.44287 0.585545,-0.43028 0.136347,0.13443 -0.471769,0.59308 -0.768323,0.78169 -0.768323,0.48865 z m 10.992968,-9.83479 c 0,-5.58099 0.04992,-7.86412 0.110939,-5.07363 0.06102,2.7905 0.06102,7.35676 0,10.14725 -0.06102,2.79049 -0.110939,0.50736 -0.110939,-5.07362 z m -15.394233,8.65787 c 0.26069,-0.10285 0.572164,-0.0902 0.692165,0.0281 0.12,0.11831 -0.09329,0.20246 -0.473983,0.187 -0.420695,-0.0171 -0.506267,-0.10145 -0.218182,-0.2151 z m -9.599,-5.09744 c 0,-0.68538 0.07432,-0.96577 0.165153,-0.62307 0.09083,0.34269 0.09083,0.90346 0,1.24615 -0.09083,0.34269 -0.165153,0.0623 -0.165153,-0.62308 z m -0.01338,-6.5868 c 0.0074,-0.58748 0.0883,-0.7847 0.179858,-0.43828 0.09156,0.34642 0.08554,0.82708 -0.01338,1.06813 -0.09892,0.24105 -0.173839,-0.0424 -0.166478,-0.62985 z m 0,-6.40879 c 0.0074,-0.58747 0.0883,-0.7847 0.179858,-0.43828 0.09156,0.34642 0.08554,0.82708 -0.01338,1.06813 -0.09892,0.24105 -0.173839,-0.0424 -0.166478,-0.62985 z m 45.488929,0.17802 c 0,-0.48956 0.082,-0.68983 0.18215,-0.44505 0.10018,0.24478 0.10018,0.64533 0,0.89011 -0.10019,0.24478 -0.18215,0.0445 -0.18215,-0.44506 z m -19.016319,-3.91648 c 0.359501,-0.39165 0.734891,-0.71208 0.834202,-0.71208 0.09931,0 -0.113572,0.32043 -0.473072,0.71208 -0.359501,0.39165 -0.734891,0.71209 -0.834202,0.71209 -0.09931,0 0.113572,-0.32044 0.473072,-0.71209 z m 17.299899,-0.089 -0.68794,-0.8011 0.81254,0.67826 c 0.76358,0.6374 0.97694,0.92394 0.68794,0.92394 -0.0685,0 -0.43417,-0.36049 -0.81254,-0.8011 z m -43.759129,-2.75934 c 0,-0.68538 0.07432,-0.96576 0.165153,-0.62307 0.09083,0.34269 0.09083,0.90346 0,1.24615 -0.09083,0.34269 -0.165153,0.0623 -0.165153,-0.62308 z m 0,-6.40878 c 0,-0.68539 0.07432,-0.96577 0.165153,-0.62308 0.09083,0.34269 0.09083,0.90346 0,1.24616 -0.09083,0.34269 -0.165153,0.0623 -0.165153,-0.62308 z m 0,-6.40879 c 0,-0.68538 0.07432,-0.96576 0.165153,-0.62307 0.09083,0.34269 0.09083,0.90346 0,1.24615 -0.09083,0.34269 -0.165153,0.0623 -0.165153,-0.62308 z m 34.007739,-6.40878 c 0,-3.03527 0.0554,-4.27697 0.12308,-2.75934 0.0677,1.51764 0.0677,4.00104 0,5.51868 -0.0677,1.51763 -0.12308,0.27593 -0.12308,-2.75934 z m 2.53032,-0.53407 c -3.6e-4,-3.329 0.0539,-4.73879 0.12062,-3.13286 0.0668,1.60593 0.0671,4.32967 7.2e-4,6.05274 -0.0663,1.72308 -0.12096,0.40913 -0.12137,-2.91988 z m -36.48117,1.45007 c -0.108784,-0.27949 -0.125815,-0.88032 -0.03785,-1.33516 0.123866,-0.64046 0.171036,-0.57039 0.209123,0.31064 0.04724,1.09287 0.116678,1.14288 1.764544,1.27099 l 1.715365,0.13335 -1.726699,0.0642 c -1.208823,0.0449 -1.78602,-0.0882 -1.924488,-0.444 z m -9.07366,-1.88358 c 0.548939,-0.0818 1.36148,-0.0796 1.805647,0.005 0.444166,0.0845 -0.005,0.15147 -0.998072,0.1488 -0.993106,-0.003 -1.356515,-0.0718 -0.807575,-0.15366 z"
         id="path1358" />
      <path
         style="fill:#0000ff;stroke-width:0.358578"
         d="m 120.59381,181.804 c 0,-0.0739 0.28439,-0.35431 0.63198,-0.62307 0.57277,-0.44287 0.58554,-0.43028 0.13634,0.13443 -0.47176,0.59308 -0.76832,0.78168 -0.76832,0.48864 z m -63.428595,-4.13809 c 0,-1.86033 0.06087,-2.62137 0.135258,-1.69121 0.07439,0.93017 0.07439,2.45225 0,3.38242 -0.07439,0.93016 -0.135258,0.16912 -0.135258,-1.69121 z m 20.221247,-0.17802 c -0.0011,-1.76242 0.05997,-2.5283 0.135704,-1.70195 0.07574,0.82634 0.07664,2.26832 0.002,3.20439 -0.07462,0.93607 -0.13659,0.25997 -0.13769,-1.50244 z m 18.289416,2.17985 c 0,-0.0739 0.28439,-0.35431 0.631977,-0.62307 0.572773,-0.44288 0.585546,-0.43028 0.136348,0.13442 -0.471769,0.59308 -0.768325,0.78169 -0.768325,0.48865 z m 24.704572,-7.52051 c -3.6e-4,-3.329 0.0539,-4.7388 0.12062,-3.13286 0.0668,1.60593 0.0671,4.32966 7.2e-4,6.05274 -0.0663,1.72307 -0.12096,0.40913 -0.12138,-2.91988 z m -11.19743,0.17802 c 0,-3.03527 0.0554,-4.27697 0.12308,-2.75933 0.0677,1.51763 0.0677,4.00104 0,5.51867 -0.0677,1.51764 -0.12308,0.27594 -0.12308,-2.75934 z m -52.779968,-0.24543 c 0.347587,-0.0896 0.916366,-0.0896 1.263953,0 0.347587,0.0896 0.0632,0.16283 -0.631976,0.16283 -0.695175,0 -0.979564,-0.0733 -0.631977,-0.16283 z m 5.607052,-0.0157 c 0.84939,-0.0752 2.149456,-0.0742 2.889036,0.002 0.739579,0.0765 0.04462,0.13804 -1.544346,0.13675 -1.58897,-10e-4 -2.19408,-0.0639 -1.34469,-0.13911 z m 7.944848,0 c 0.84939,-0.0752 2.149456,-0.0742 2.889035,0.002 0.73958,0.0765 0.04462,0.13804 -1.544346,0.13675 -1.588969,-10e-4 -2.194079,-0.0639 -1.344689,-0.13911 z m 7.032478,0.0157 c 0.347587,-0.0896 0.916366,-0.0896 1.263953,0 0.347587,0.0896 0.0632,0.16283 -0.631977,0.16283 -0.695174,0 -0.979563,-0.0733 -0.631976,-0.16283 z m -5.411976,-4.28258 c 0.548939,-0.0818 1.36148,-0.0796 1.805647,0.005 0.444167,0.0845 -0.005,0.15147 -0.998071,0.1488 -0.993106,-0.003 -1.356516,-0.0718 -0.807576,-0.15366 z M 61.46383,165.66098 c 0.548939,-0.0818 1.36148,-0.0796 1.805647,0.005 0.444166,0.0845 -0.005,0.15147 -0.998072,0.1488 -0.993106,-0.003 -1.356515,-0.0718 -0.807575,-0.15366 z m 49.84883,-5.79725 c 0,-1.07703 0.0677,-1.51764 0.15044,-0.97912 0.0828,0.53851 0.0828,1.41972 0,1.95824 -0.0827,0.53851 -0.15044,0.0979 -0.15044,-0.97912 z m 2.8711,1.53478 c 0.34759,-0.0895 0.91637,-0.0895 1.26395,0 0.34759,0.0896 0.0632,0.16283 -0.63197,0.16283 -0.69518,0 -0.97957,-0.0733 -0.63198,-0.16283 z M 61.46383,159.2522 c 0.548939,-0.0818 1.36148,-0.0797 1.805647,0.005 0.444166,0.0845 -0.005,0.15147 -0.998072,0.1488 -0.993106,-0.003 -1.356515,-0.0718 -0.807575,-0.15366 z m 10.111624,-8.54505 c 0.548939,-0.0818 1.36148,-0.0797 1.805647,0.005 0.444167,0.0845 -0.005,0.15147 -0.998071,0.14879 -0.993106,-0.003 -1.356516,-0.0718 -0.807576,-0.15365 z M 61.46383,148.57089 c 0.548939,-0.0818 1.36148,-0.0796 1.805647,0.005 0.444166,0.0845 -0.005,0.15147 -0.998072,0.14879 -0.993106,-0.003 -1.356515,-0.0718 -0.807575,-0.15365 z m 10.111624,-4.27253 c 0.548939,-0.0818 1.36148,-0.0797 1.805647,0.005 0.444167,0.0845 -0.005,0.15147 -0.998071,0.1488 -0.993106,-0.003 -1.356516,-0.0718 -0.807576,-0.15366 z M 61.46383,142.1621 c 0.548939,-0.0818 1.36148,-0.0797 1.805647,0.005 0.444166,0.0845 -0.005,0.15147 -0.998072,0.1488 -0.993106,-0.003 -1.356515,-0.0718 -0.807575,-0.15366 z m 10.111624,-4.27252 c 0.548939,-0.0818 1.36148,-0.0796 1.805647,0.005 0.444167,0.0845 -0.005,0.15147 -0.998071,0.14879 -0.993106,-0.003 -1.356516,-0.0718 -0.807576,-0.15365 z m 25.1173,-0.0112 c 3.836526,-0.0577 10.011846,-0.0576 13.722916,1.9e-4 3.71108,0.0578 0.5721,0.10504 -6.97551,0.10494 -7.547604,-1.1e-4 -10.583937,-0.0474 -6.747406,-0.10513 z m -9.5937,-1.04691 c 0.347587,-0.0896 0.916366,-0.0896 1.263953,0 0.347587,0.0896 0.0632,0.16282 -0.631976,0.16282 -0.695174,0 -0.979564,-0.0733 -0.631977,-0.16282 z m 32.145486,-0.0101 c 0.54894,-0.0818 1.36148,-0.0797 1.80565,0.005 0.44416,0.0845 -0.005,0.15147 -0.99807,0.14879 -0.99311,-0.003 -1.35652,-0.0718 -0.80758,-0.15365 z m -57.78071,-1.06814 c 0.548939,-0.0818 1.36148,-0.0796 1.805647,0.005 0.444166,0.0845 -0.005,0.15147 -0.998072,0.1488 -0.993106,-0.003 -1.356515,-0.0718 -0.807575,-0.15366 z m 29.670759,-7.57746 c 0,-4.21022 0.05224,-5.93258 0.116085,-3.82747 0.06385,2.10511 0.06385,5.54983 0,7.65494 -0.06384,2.1051 -0.116085,0.38274 -0.116085,-3.82747 z m 20.223251,0 c 0,-4.21022 0.0522,-5.93258 0.11608,-3.82747 0.0638,2.10511 0.0638,5.54983 0,7.65494 -0.0638,2.1051 -0.11608,0.38274 -0.11608,-3.82747 z m 9.02474,0 c 0,-3.62275 0.0536,-5.10478 0.11917,-3.29341 0.0655,1.81138 0.0655,4.77544 0,6.58681 -0.0655,1.81137 -0.11917,0.32934 -0.11917,-3.2934 z"
         id="path1356" />
      <path
         style="fill:#0000ff;stroke-width:0.358578"
         d="m 76.345653,147.75825 c 0,-13.41395 0.04497,-18.90147 0.09992,-12.1945 0.05496,6.70697 0.05496,17.68202 0,24.38899 -0.05496,6.70697 -0.09992,1.21945 -0.09992,-12.19449 z m 7.945232,-1.78022 c 0,-14.00142 0.0448,-19.72927 0.09955,-12.72856 0.05475,7.00071 0.05475,18.45641 0,25.45712 -0.05475,7.0007 -0.09955,1.27285 -0.09955,-12.72856 z m -12.715431,17.54669 c 0.548939,-0.0818 1.36148,-0.0797 1.805647,0.005 0.444167,0.0845 -0.005,0.15147 -0.998071,0.1488 -0.993106,-0.003 -1.356516,-0.0718 -0.807576,-0.15366 z m 0,-2.13626 c 0.548939,-0.0818 1.36148,-0.0797 1.805647,0.005 0.444167,0.0845 -0.005,0.15147 -0.998071,0.1488 -0.993106,-0.003 -1.356516,-0.0718 -0.807576,-0.15366 z m 46.598666,-1.52473 c 0,-1.07703 0.0677,-1.51764 0.15044,-0.97912 0.0827,0.53851 0.0827,1.41972 0,1.95824 -0.0827,0.53851 -0.15044,0.0979 -0.15044,-0.97912 z m -46.598666,-2.7478 c 0.548939,-0.0818 1.36148,-0.0796 1.805647,0.005 0.444167,0.0845 -0.005,0.15146 -0.998071,0.14879 -0.993106,-0.003 -1.356516,-0.0718 -0.807576,-0.15365 z m 41.366926,0.0123 c 0.26069,-0.10285 0.57216,-0.0902 0.69217,0.0281 0.12,0.11831 -0.0933,0.20246 -0.47399,0.187 -0.42069,-0.0171 -0.50626,-0.10145 -0.21818,-0.21511 z m 3.25016,0 c 0.26069,-0.10285 0.57217,-0.0902 0.69217,0.0281 0.12,0.11831 -0.0933,0.20246 -0.47398,0.187 -0.4207,-0.0171 -0.50627,-0.10145 -0.21819,-0.21511 z m -54.72871,-2.14855 c 0.548939,-0.0818 1.36148,-0.0796 1.805647,0.005 0.444166,0.0845 -0.005,0.15147 -0.998072,0.1488 -0.993106,-0.003 -1.356515,-0.0718 -0.807575,-0.15366 z m 10.111624,0 c 0.548939,-0.0818 1.36148,-0.0796 1.805647,0.005 0.444167,0.0845 -0.005,0.15147 -0.998071,0.1488 -0.993106,-0.003 -1.356516,-0.0718 -0.807576,-0.15366 z M 61.46383,152.84341 c 0.548939,-0.0818 1.36148,-0.0797 1.805647,0.005 0.444166,0.0845 -0.005,0.15147 -0.998072,0.1488 -0.993106,-0.003 -1.356515,-0.0718 -0.807575,-0.15366 z m 41.70548,-0.009 c 1.44001,-0.0676 3.79638,-0.0676 5.23638,0 1.44,0.0676 0.26182,0.12287 -2.61819,0.12287 -2.88,0 -4.05819,-0.0553 -2.61819,-0.12287 z m 0,-2.13627 c 1.44001,-0.0676 3.79638,-0.0676 5.23638,0 1.44,0.0676 0.26182,0.12288 -2.61819,0.12288 -2.88,0 -4.05819,-0.0553 -2.61819,-0.12288 z m -9.867944,-22.52242 c 0,-4.21022 0.05224,-5.93258 0.116085,-3.82747 0.06385,2.10511 0.06385,5.54983 0,7.65494 -0.06384,2.1051 -0.116085,0.38274 -0.116085,-3.82747 z m 24.914434,0 c 0,-3.62275 0.0536,-5.10478 0.11917,-3.29341 0.0655,1.81138 0.0655,4.77544 0,6.58681 -0.0655,1.81137 -0.11917,0.32934 -0.11917,-3.2934 z"
         id="path1354" />
      <path
         style="fill:#0000ff;stroke-width:0.358578"
         d="m 58.289182,148.11429 c 0,-13.41394 0.04497,-18.90147 0.09992,-12.19449 0.05496,6.70697 0.05496,17.68201 0,24.38898 -0.05496,6.70697 -0.09992,1.21945 -0.09992,-12.19449 z m 10.111351,0.71209 c 0,-13.0223 0.04508,-18.3496 0.100187,-11.83845 0.0551,6.51114 0.0551,17.16575 0,23.6769 -0.0551,6.51114 -0.100187,1.18384 -0.100187,-11.83845 z m -7.964461,21.09736 0.02969,-2.04903 1.625083,-0.0291 1.625082,-0.0291 -1.517347,0.1369 -1.517348,0.1369 -0.137421,1.94121 -0.137421,1.94122 0.02969,-2.04903 z m 5.797684,-21.45341 c 0,-13.02229 0.04508,-18.34959 0.100187,-11.83845 0.0551,6.51115 0.0551,17.16576 0,23.6769 -0.0551,6.51115 -0.100187,1.18385 -0.100187,-11.83845 z m -5.797684,15.04463 0.02969,-2.04904 1.625083,-0.0291 1.625082,-0.0291 -1.517347,0.1369 -1.517348,0.13689 -0.137421,1.94122 -0.137421,1.94122 0.02969,-2.04903 z m 53.025428,0.006 c 0.74483,-0.0768 1.96364,-0.0768 2.70847,0 0.74483,0.0768 0.13543,0.13966 -1.35423,0.13966 -1.48966,0 -2.09907,-0.0628 -1.35424,-0.13966 z m 0.72226,-4.25859 c 0.34759,-0.0896 0.91637,-0.0896 1.26395,0 0.34759,0.0896 0.0632,0.16283 -0.63197,0.16283 -0.69518,0 -0.97957,-0.0733 -0.63198,-0.16283 z M 60.397096,157.1934 c 0.002,-1.17494 0.06945,-1.61268 0.149819,-0.97274 0.08037,0.63993 0.07872,1.60125 -0.0037,2.13626 -0.0824,0.53501 -0.14816,0.0114 -0.146133,-1.16352 z m 0,-6.40878 c 0.002,-1.17495 0.06945,-1.61268 0.149819,-0.97275 0.08037,0.63994 0.07872,1.60126 -0.0037,2.13626 -0.0824,0.53501 -0.148159,0.0114 -0.146132,-1.16351 z m 11.178358,-2.21373 c 0.548939,-0.0818 1.36148,-0.0796 1.805647,0.005 0.444167,0.0845 -0.005,0.15147 -0.998071,0.14879 -0.993106,-0.003 -1.356516,-0.0718 -0.807576,-0.15365 z m -11.14263,-2.37107 c -0.104957,-0.26966 -0.129148,-1.27103 -0.05376,-2.22527 l 0.137071,-1.73498 0.06509,2.02774 0.06509,2.02775 1.715365,0.13335 1.715365,0.13335 -1.726699,0.0642 c -1.180926,0.0439 -1.787016,-0.0908 -1.91753,-0.42612 z m 11.14263,-4.03772 c 0.548939,-0.0818 1.36148,-0.0797 1.805647,0.005 0.444167,0.0845 -0.005,0.15147 -0.998071,0.1488 -0.993106,-0.003 -1.356516,-0.0718 -0.807576,-0.15366 z m -11.14263,-2.37106 c -0.104957,-0.26966 -0.129148,-1.27104 -0.05376,-2.22528 l 0.137071,-1.73498 0.06509,2.02775 0.06509,2.02774 1.715365,0.13335 1.715365,0.13336 -1.726699,0.0642 c -1.180926,0.0439 -1.787016,-0.0908 -1.91753,-0.42611 z m 39.724376,-10.013 c -3.6e-4,-3.329 0.0539,-4.73879 0.12062,-3.13286 0.0668,1.60593 0.0671,4.32967 7.2e-4,6.05274 -0.0663,1.72308 -0.12096,0.40913 -0.12137,-2.91988 z m 2.16436,0.53407 c 0,-3.03527 0.0554,-4.27697 0.12308,-2.75934 0.0677,1.51764 0.0677,4.00104 0,5.51868 -0.0677,1.51763 -0.12308,0.27593 -0.12308,-2.75934 z m -41.924464,1.24615 c 0.002,-1.17494 0.06945,-1.61268 0.149819,-0.97274 0.08037,0.63993 0.07872,1.60125 -0.0037,2.13626 -0.0824,0.53501 -0.148159,0.0114 -0.146132,-1.16352 z m -0.0086,-6.05274 c 0.0027,-0.97912 0.07284,-1.33741 0.155851,-0.7962 0.08301,0.54121 0.08079,1.3423 -0.0049,1.78022 -0.08572,0.43791 -0.153631,-0.005 -0.15092,-0.98402 z"
         id="path1352" />
      <path
         style="fill:#0000ff;stroke-width:0.358578"
         d="m 80.244468,176.35104 c 0.351367,-0.0903 0.838892,-0.0843 1.083388,0.0132 0.244496,0.0975 -0.04299,0.17139 -0.638849,0.16414 -0.595864,-0.007 -0.795906,-0.0871 -0.444539,-0.17733 z m -18.24391,-2.15574 c 2.830352,-0.0602 7.461837,-0.0602 10.292189,0 2.830352,0.0601 0.51461,0.10937 -5.146094,0.10937 -5.660704,0 -7.976447,-0.0492 -5.146095,-0.10937 z m 12.056733,-2.82966 c -0.04724,-1.09287 -0.116678,-1.14288 -1.764544,-1.27098 l -1.715365,-0.13336 1.726699,-0.0642 c 1.861938,-0.0692 2.251504,0.28399 1.962334,1.77915 -0.123867,0.64046 -0.171037,0.57039 -0.209124,-0.31064 z m 12.396455,-17.37663 c 6.8e-5,-9.59538 0.04659,-13.46958 0.103373,-8.60935 0.05679,4.86023 0.05673,12.711 -1.23e-4,17.44614 -0.05685,4.73514 -0.103318,0.75858 -0.10325,-8.83679 z M 74.1237,165.91647 c 0,-1.27286 0.06554,-1.79357 0.145652,-1.15714 0.08011,0.63643 0.08011,1.67785 0,2.31428 -0.08011,0.63643 -0.145652,0.11572 -0.145652,-1.15714 z M 74.12,159.32966 c 0.002,-1.17494 0.06945,-1.61268 0.149819,-0.97274 0.08037,0.63993 0.07872,1.60125 -0.0037,2.13626 -0.0824,0.53501 -0.14816,0.0114 -0.146133,-1.16352 z m 41.84951,1.06813 c 0.007,-0.58747 0.0883,-0.78469 0.17986,-0.43828 0.0916,0.34642 0.0855,0.82708 -0.0134,1.06814 -0.0989,0.24105 -0.17384,-0.0424 -0.16648,-0.62986 z M 74.1237,152.74286 c 0,-1.27286 0.06554,-1.79357 0.145652,-1.15715 0.08011,0.63643 0.08011,1.67786 0,2.31429 -0.08011,0.63643 -0.145652,0.11571 -0.145652,-1.15714 z m 0,-6.40879 c 0,-1.27285 0.06554,-1.79357 0.145652,-1.15714 0.08011,0.63643 0.08011,1.67786 0,2.31428 -0.08011,0.63643 -0.145652,0.11572 -0.145652,-1.15714 z m 0,-6.40878 c 0,-1.27286 0.06554,-1.79357 0.145652,-1.15715 0.08011,0.63643 0.08011,1.67786 0,2.31429 -0.08011,0.63643 -0.145652,0.11571 -0.145652,-1.15714 z m -1.847689,-4.166 1.698628,-0.1442 0.137483,-2.20643 0.137484,-2.20644 -0.03047,2.31428 -0.03046,2.31428 -1.805647,0.0364 -1.805648,0.0363 z m 19.341372,-0.002 c 0.449212,-0.0852 1.099245,-0.0819 1.444518,0.007 0.345272,0.0891 -0.02228,0.1588 -0.816752,0.15485 -0.794485,-0.004 -1.076979,-0.0769 -0.627766,-0.16203 z m 3.858863,-0.20284 c -0.09733,-0.25007 -0.129299,-3.73484 -0.07104,-7.74395 l 0.105926,-7.28928 0.08237,7.54894 0.08237,7.54893 2.257059,0.12641 2.257059,0.12641 -2.268391,0.0686 c -1.560715,0.0472 -2.323604,-0.0732 -2.445359,-0.38606 z m 7.512504,0.20924 c 0.34759,-0.0896 0.91637,-0.0896 1.26395,0 0.34759,0.0895 0.0632,0.16282 -0.63197,0.16282 -0.69518,0 -0.97957,-0.0733 -0.63198,-0.16282 z m 4.86719,-0.0115 c 0.64109,-0.0787 1.77865,-0.0799 2.52791,-0.003 0.74926,0.0771 0.22473,0.14143 -1.16562,0.14301 -1.39035,0.002 -2.00338,-0.0615 -1.36229,-0.14013 z m 6.95268,0.0569 1.07627,-0.20006 0.10817,-7.36587 0.10818,-7.36587 -0.0108,7.47692 -0.0108,7.47691 -1.17367,0.089 c -1.14395,0.0867 -1.14641,0.0839 -0.0974,-0.11105 z m -28.361737,-1.32564 c -0.09795,-0.25166 -0.129379,-3.25577 -0.06984,-6.67581 l 0.108251,-6.21826 0.08117,6.47524 0.08117,6.47524 1.173671,0.1436 1.173671,0.1436 -1.185005,0.057 c -0.678986,0.0326 -1.261053,-0.13841 -1.363096,-0.40059 z m 32.431557,0.21214 c 0.34759,-0.0896 0.91637,-0.0896 1.26396,0 0.34758,0.0896 0.0632,0.16282 -0.63198,0.16282 -0.69517,0 -0.97956,-0.0733 -0.63198,-0.16282 z M 61.46383,133.6174 c 0.548939,-0.0818 1.36148,-0.0797 1.805647,0.005 0.444166,0.0845 -0.005,0.15147 -0.998072,0.1488 -0.993106,-0.003 -1.356515,-0.0718 -0.807575,-0.15365 z m 12.670466,-7.22143 c 0,-1.6645 0.06221,-2.34544 0.138237,-1.51319 0.07603,0.83226 0.07603,2.19412 0,3.02637 -0.07603,0.83226 -0.138237,0.15132 -0.138237,-1.51318 z"
         id="path1350" />
      <path
         style="fill:#0000ff;stroke-width:0.358578"
         d="m 61.662171,182.74006 c 3.240102,-0.0591 8.440366,-0.059 11.556142,2.6e-4 3.115776,0.0592 0.464783,0.10754 -5.891095,0.1074 -6.355879,-1.4e-4 -8.90515,-0.0486 -5.665047,-0.10766 z m 51.799329,0.007 c 0.74483,-0.0768 1.96364,-0.0768 2.70847,0 0.74483,0.0768 0.13543,0.13966 -1.35423,0.13966 -1.48966,0 -2.09907,-0.0628 -1.35424,-0.13966 z m -33.886002,-1.52084 c 0.03346,-0.45329 1.035539,-0.53593 6.625686,-0.54645 l 6.586258,-0.0124 -6.475699,0.10934 c -4.712713,0.0796 -6.516535,0.22834 -6.625687,0.54646 -0.08249,0.24041 -0.132243,0.19678 -0.110558,-0.097 z m -0.06666,-3.56043 c 0,-0.68539 0.07432,-0.96577 0.165153,-0.62308 0.09083,0.34269 0.09083,0.90346 0,1.24616 -0.09083,0.34269 -0.165153,0.0623 -0.165153,-0.62308 z m 27.507402,-5.34066 c 0,-3.03527 0.0554,-4.27697 0.12308,-2.75933 0.0677,1.51763 0.0677,4.00104 0,5.51867 -0.0677,1.51764 -0.12308,0.27594 -0.12308,-2.75934 z m -27.534165,1.42418 c 0,-0.48956 0.08197,-0.68984 0.182149,-0.44506 0.100181,0.24478 0.100181,0.64533 0,0.89011 -0.100182,0.24478 -0.182149,0.0445 -0.182149,-0.44505 z m 33.959545,-13.35164 c 0.007,-0.58747 0.0883,-0.78469 0.17986,-0.43828 0.0916,0.34642 0.0855,0.82708 -0.0134,1.06814 -0.0989,0.24105 -0.17384,-0.0424 -0.16648,-0.62986 z m -16.682352,-7.43332 c 0,-0.0739 0.284389,-0.35432 0.631976,-0.62307 0.572773,-0.44287 0.585546,-0.43028 0.136348,0.13442 -0.471769,0.59308 -0.768324,0.78169 -0.768324,0.48865 z m 17.288142,-0.48865 c -0.44919,-0.5647 -0.43642,-0.57729 0.13635,-0.13442 0.60155,0.46512 0.79285,0.7575 0.49563,0.7575 -0.075,0 -0.35938,-0.28038 -0.63198,-0.62308 z m -0.5228,-24.29997 c 0,-4.21022 0.0522,-5.93258 0.11609,-3.82747 0.0639,2.10511 0.0639,5.54983 0,7.65494 -0.0639,2.1051 -0.11609,0.38274 -0.11609,-3.82747 z m -41.949155,1.16868 c 0.548939,-0.0818 1.36148,-0.0796 1.805647,0.005 0.444167,0.0845 -0.005,0.15147 -0.998071,0.1488 -0.993106,-0.003 -1.356516,-0.0718 -0.807576,-0.15366 z m -10.477719,-2.13579 c 0.546208,-0.0816 1.440003,-0.0816 1.986212,0 0.546208,0.0816 0.09931,0.14833 -0.993106,0.14833 -1.092417,0 -1.539314,-0.0667 -0.993106,-0.14833 z m 5.784944,-2.12798 c 0.351367,-0.0903 0.838892,-0.0843 1.083388,0.0132 0.244496,0.0975 -0.04299,0.17139 -0.638849,0.16414 -0.595864,-0.007 -0.795907,-0.087 -0.444539,-0.17733 z m 35.19519,-2.14649 c 0.64109,-0.0787 1.77865,-0.0799 2.52791,-0.003 0.74926,0.0771 0.22473,0.14143 -1.16562,0.14301 -1.39035,0.002 -2.00338,-0.0615 -1.36229,-0.14013 z"
         id="path1348" />
      <path
         style="fill:#0000ff;stroke-width:0.358578"
         d="m 55.087454,182.08733 c -0.369147,-0.94843 -0.243166,-8.34057 0.154633,-9.07339 0.273101,-0.50311 0.759657,-0.68869 1.805648,-0.68869 h 1.431811 v -24.87039 -24.8704 l 0.812542,-1.17706 c 1.7108,-2.47829 2.278488,-2.66671 8.034494,-2.66671 5.662616,0 6.190218,0.16323 7.923169,2.45123 0.733257,0.96811 0.746053,1.36385 0.84196,26.03806 l 0.09739,25.05502 1.527696,0.10913 c 1.36569,0.0976 1.539814,0.21298 1.641965,1.08827 0.102752,0.88043 0.255416,0.97912 1.514663,0.97912 0.959629,0 1.719304,-0.27042 2.413636,-0.85918 l 1.013244,-0.85918 0.09723,-26.08289 c 0.06844,-18.36147 0.215167,-26.22301 0.49563,-26.55618 0.233189,-0.27702 1.13955,-0.47329 2.185627,-0.47329 1.107138,0 1.993353,-0.20323 2.328918,-0.53406 0.813542,-0.80209 27.6219,-0.80209 28.29707,0 0.28551,0.33916 1.08298,0.53406 2.18521,0.53406 2.86324,0 2.87061,0.0216 2.87061,8.41586 0,4.34904 -0.15103,7.57509 -0.37384,7.98555 -0.29363,0.54093 -0.76404,0.68868 -2.19257,0.68868 -1.13515,0 -2.02234,0.20074 -2.36043,0.53407 -0.81543,0.80394 -28.214702,0.80394 -28.527611,0 -0.135514,-0.34817 -0.697215,-0.53407 -1.613748,-0.53407 H 86.28652 l -0.0013,17.8912 c -0.0013,17.1057 -0.03225,17.94114 -0.705018,19.02898 -0.950533,1.53697 -2.331199,2.36531 -4.318231,2.59076 -1.558363,0.17681 -1.662987,0.25634 -1.769459,1.34507 l -0.113163,1.15714 h 7.044767 c 6.924762,0 7.062028,-0.0146 8.058012,-0.85866 l 1.013229,-0.85866 0.180564,-11.22162 c 0.171855,-10.68028 0.21701,-11.27007 0.93603,-12.22594 0.415504,-0.55238 1.292706,-1.36482 1.949333,-1.80542 1.120433,-0.75182 1.564936,-0.8011 7.226256,-0.8011 5.66132,0 6.10583,0.0493 7.22626,0.8011 1.67967,1.12707 2.54502,2.40692 2.77616,4.10594 0.17055,1.25364 0.33472,1.4785 1.14723,1.57138 0.88614,0.10129 0.95528,0.24252 1.05657,2.15831 0.10265,1.94135 0.17117,2.0758 1.29361,2.53818 2.90418,1.19635 3.58829,3.41355 3.4149,11.06767 -0.11148,4.92148 -0.22818,5.86947 -0.848,6.88858 -1.30077,2.13872 -2.45148,2.55672 -7.03849,2.55672 -3.44804,0 -4.24718,-0.10934 -5.24559,-0.7177 -2.09164,-1.2745 -2.33813,-2.31563 -2.33813,-9.87576 0,-6.41217 0.0404,-6.80568 0.81254,-7.92099 0.4469,-0.64549 1.38132,-1.4705 2.0765,-1.83335 1.17594,-0.6138 1.27652,-0.80226 1.44451,-2.7065 0.16911,-1.91689 0.24359,-2.05392 1.17367,-2.15943 0.8731,-0.0991 0.99311,-0.26371 0.99311,-1.36256 0,-0.90673 -0.28982,-1.53562 -1.05561,-2.29063 l -1.05561,-1.04074 h -5.78571 c -5.59393,0 -5.8193,0.0284 -6.798955,0.85859 l -1.013242,0.8586 -0.180565,11.15788 c -0.249425,15.41311 0.321517,14.62808 -10.833883,14.89633 l -7.403154,0.17802 -0.114269,0.97912 -0.11427,0.97912 H 67.341867 c -10.641401,0 -12.060598,-0.0652 -12.254413,-0.56319 z m 22.531952,-4.59944 v -3.38242 H 67.327218 57.035029 v 3.38242 3.38241 h 10.292189 10.292188 z m 41.918794,2.34167 1.05561,-1.04074 v -6.45958 c 0,-3.7495 -0.156,-6.74697 -0.37183,-7.14458 -0.66559,-1.22614 -2.29592,-1.7605 -5.37132,-1.7605 -5.49337,0 -5.81299,0.49975 -5.81299,9.08882 v 6.27584 l 1.05561,1.04074 c 1.02811,1.01363 1.15113,1.04074 4.72246,1.04074 3.57133,0 3.69435,-0.0271 4.72246,-1.04074 z M 66.424394,148.82638 V 125.3275 h 0.902824 0.902823 v 23.49888 23.49887 h 3.0696 3.069601 v -1.24615 -1.24615 h -1.805648 c -1.68527,0 -1.805647,-0.0593 -1.805647,-0.89011 0,-0.83077 0.120377,-0.89011 1.805647,-0.89011 h 1.805648 v -2.31428 -2.31429 h -1.805648 c -1.68527,0 -1.805647,-0.0593 -1.805647,-0.8901 0,-0.83077 0.120377,-0.89011 1.805647,-0.89011 h 1.805648 v -2.31429 -2.31428 h -1.805648 c -1.68527,0 -1.805647,-0.0593 -1.805647,-0.89011 0,-0.83077 0.120377,-0.89011 1.805647,-0.89011 h 1.805648 v -2.31428 -2.31429 h -1.805648 c -1.68527,0 -1.805647,-0.0593 -1.805647,-0.8901 0,-0.83077 0.120377,-0.89011 1.805647,-0.89011 h 1.805648 v -2.31429 -2.31428 h -1.805648 c -1.68527,0 -1.805647,-0.0593 -1.805647,-0.89011 0,-0.83077 0.120377,-0.89011 1.805647,-0.89011 h 1.805648 v -2.31428 -2.31429 h -1.805648 c -1.68527,0 -1.805647,-0.0593 -1.805647,-0.8901 0,-0.83077 0.120377,-0.89011 1.805647,-0.89011 h 1.805648 v -2.31429 -2.31428 h -1.805648 c -1.674481,0 -1.805647,-0.0632 -1.805647,-0.8706 0,-0.78602 0.166655,-0.88114 1.715365,-0.97912 l 1.715365,-0.10852 0.106665,-2.82463 c 0.201252,-5.32941 -0.476777,-5.89844 -7.02834,-5.89844 -4.507914,0 -4.830585,0.0473 -5.773735,0.84719 -0.881751,0.74777 -1.016029,1.14468 -1.144278,3.38241 l -0.1453,2.53523 h 1.846399 c 1.72874,0 1.8464,0.0567 1.8464,0.89011 0,0.83077 -0.120376,0.89011 -1.805647,0.89011 h -1.805647 v 2.31428 2.31429 h 1.805647 c 1.685271,0 1.805647,0.0593 1.805647,0.8901 0,0.83077 -0.120376,0.89011 -1.805647,0.89011 h -1.805647 v 2.31429 2.31428 h 1.805647 c 1.685271,0 1.805647,0.0593 1.805647,0.89011 0,0.83077 -0.120376,0.89011 -1.805647,0.89011 h -1.805647 v 2.31428 2.31429 h 1.805647 c 1.685271,0 1.805647,0.0593 1.805647,0.8901 0,0.83077 -0.120376,0.89011 -1.805647,0.89011 h -1.805647 v 2.31429 2.31428 h 1.805647 c 1.685271,0 1.805647,0.0593 1.805647,0.89011 0,0.83077 -0.120376,0.89011 -1.805647,0.89011 h -1.805647 v 2.31428 2.31428 h 1.805647 c 1.685271,0 1.805647,0.0593 1.805647,0.89011 0,0.83077 -0.120376,0.89011 -1.805647,0.89011 h -1.805647 v 2.31429 2.31428 h 1.805647 c 1.685271,0 1.805647,0.0593 1.805647,0.89011 0,0.83077 -0.120376,0.89011 -1.805647,0.89011 h -1.805647 v 2.31428 2.31428 h 3.0696 3.0696 z m 49.835866,11.54992 c 0,-1.24666 -0.0224,-1.26581 -1.35123,-1.15714 -0.9626,0.0787 -1.38685,0.29569 -1.47507,0.75438 -0.22696,1.18016 0.22824,1.67041 1.55101,1.67041 1.22084,0 1.27529,-0.0541 1.27529,-1.26765 z M 93.509102,128.35387 v -7.65494 h -1.263953 -1.263953 v 7.65494 7.65494 h 1.263953 1.263953 z m 6.861458,1.23229 v -6.42265 l 3.15988,0.10288 3.15989,0.10287 0.0986,6.31977 0.0986,6.31978 h 2.339 2.33901 v -7.65494 -7.65494 h -8.12541 -8.125411 v 7.65494 7.65494 h 2.527906 2.527905 z m 4.33355,0.90397 v -5.51868 h -1.26395 -1.26395 v 5.51868 5.51868 h 1.26395 1.26395 z m 11.55615,-2.13626 v -7.65494 h -1.44452 -1.44452 v 7.41758 c 0,4.07966 0.10834,7.52439 0.24075,7.65493 0.13242,0.13055 0.78245,0.23737 1.44452,0.23737 h 1.20377 z m -27.445841,0 v -6.58681 h -1.263953 -1.263953 v 6.58681 6.58681 h 1.263953 1.263953 z m 31.779391,0 v -6.58681 h -1.26395 -1.26396 v 6.58681 6.58681 h 1.26396 1.26395 z"
         id="path1346" />
    </g>
  </g>
</svg>
