<svg width="38" height="46" viewBox="0 0 38 46" fill="none" xmlns="http://www.w3.org/2000/svg">
<g clip-path="url(#clip0)">
<path d="M37.3354 43.5656V43.0244H36.8015V43.5656C36.7314 43.5656 36.662 43.5796 36.5972 43.6068C36.5324 43.634 36.4735 43.6739 36.424 43.7241C36.3744 43.7744 36.3351 43.834 36.3082 43.8997C36.2814 43.9654 36.2676 44.0357 36.2676 44.1068V45.4593C36.2673 45.5305 36.2809 45.6011 36.3076 45.667C36.3344 45.7329 36.3736 45.7928 36.4232 45.8433C36.4729 45.8938 36.5318 45.9338 36.5967 45.9611C36.6616 45.9885 36.7312 46.0025 36.8015 46.0025H37.3354C37.477 46.0025 37.6129 45.9455 37.713 45.844C37.8131 45.7425 37.8694 45.6049 37.8694 45.4613V44.1068C37.8694 43.9633 37.8131 43.8256 37.713 43.7241C37.6129 43.6226 37.477 43.5656 37.3354 43.5656Z" fill="#F87677"/>
<path d="M37.334 9.36914H37.8679V11.2628H37.334V9.36914Z" fill="#F87677"/>
<path d="M36.7993 11.3986V9.23438H34.6641V11.3986H35.465V9.77557H35.9989V11.3986H36.7993Z" fill="#F87677"/>
<path d="M18.0449 9.36914H18.5788V11.2628H18.0449V9.36914Z" fill="#F87677"/>
<path d="M0.134766 44.918H2.80389V46.0004H0.134766V44.918Z" fill="#F87677"/>
<path d="M14.5665 33.3329C15.3901 33.3489 16.1862 33.0327 16.78 32.454C17.3738 31.8753 17.7166 31.0813 17.7331 30.2465V10.4934H18.9995C19.0031 10.6601 19.0718 10.8186 19.1905 10.9341C19.3092 11.0496 19.4682 11.1127 19.6327 11.1095H34.8334C34.9979 11.1127 35.157 11.0496 35.2757 10.9341C35.3944 10.8186 35.463 10.6601 35.4666 10.4934H37.3668C37.5313 10.4965 37.6903 10.4335 37.809 10.318C37.9277 10.2024 37.9964 10.044 38 9.87721V1.23196C37.9964 1.06522 37.9277 0.906722 37.809 0.791219C37.6903 0.675717 37.5313 0.612634 37.3668 0.6158H35.4666C35.463 0.449057 35.3944 0.290561 35.2757 0.175059C35.157 0.0595563 34.9979 -0.00352678 34.8334 -0.000360725H19.6332C19.4687 -0.00352678 19.3097 0.0595563 19.191 0.175059C19.0723 0.290561 19.0036 0.449057 19 0.6158H17.0998C16.9353 0.612634 16.7763 0.675717 16.6576 0.791219C16.5389 0.906722 16.4702 1.06522 16.4666 1.23196V30.2429C16.4553 30.7433 16.2492 31.2189 15.8932 31.5659C15.5372 31.9129 15.0603 32.1031 14.5665 32.0949H13.9333V31.4788C13.9297 31.312 13.861 31.1535 13.7423 31.038C13.6236 30.9225 13.4646 30.8595 13.3001 30.8626H12.0336V3.08609C12.0171 2.25093 11.674 1.45661 11.0798 0.877813C10.4856 0.299014 9.68896 -0.0168669 8.86501 -0.000360725H5.06572C4.2423 -0.0160401 3.4464 0.300209 2.85285 0.878919C2.25931 1.45763 1.91665 2.25148 1.90015 3.08609V30.8647H0.633215C0.468702 30.8615 0.309662 30.9246 0.190963 31.0401C0.0722639 31.1556 0.0035911 31.3141 0 31.4808V36.4188C0.0035911 36.5856 0.0722639 36.7441 0.190963 36.8596C0.309662 36.9751 0.468702 37.0382 0.633215 37.035H13.2975C13.462 37.0382 13.6211 36.9751 13.7398 36.8596C13.8585 36.7441 13.9271 36.5856 13.9307 36.4188V35.8027H20.9002C21.7238 35.8186 22.5199 35.5025 23.1137 34.9238C23.7074 34.345 24.0502 33.551 24.0667 32.7162V21.6043C24.078 21.1038 24.2842 20.6282 24.6402 20.2812C24.9961 19.9343 25.4731 19.7441 25.9669 19.7522H31.0326C31.5264 19.7441 32.0033 19.9343 32.3593 20.2812C32.7153 20.6282 32.9215 21.1038 32.9328 21.6043V22.2204H32.2995C32.135 22.2173 31.976 22.2804 31.8573 22.3959C31.7386 22.5114 31.6699 22.6699 31.6663 22.8366V24.7503C30.9643 24.8801 30.3283 25.2523 29.8665 25.8038C29.4047 26.3553 29.1457 27.0519 29.1335 27.7751V33.9501C29.15 34.7849 29.4928 35.5789 30.0865 36.1576C30.6803 36.7364 31.4765 37.0525 32.3001 37.0365H34.8329C35.6565 37.0525 36.4527 36.7364 37.0464 36.1576C37.6402 35.5789 37.983 34.7849 37.9995 33.9501V27.7782C37.9873 27.055 37.7283 26.3584 37.2665 25.8069C36.8047 25.2554 36.1687 24.8831 35.4666 24.7534V22.8392C35.463 22.6724 35.3944 22.5139 35.2757 22.3984C35.157 22.2829 34.9979 22.2199 34.8334 22.223H34.2002V21.6069C34.1837 20.7721 33.8409 19.9781 33.2471 19.3993C32.6534 18.8206 31.8572 18.5044 31.0336 18.5204H25.9679C25.1443 18.5044 24.3481 18.8206 23.7544 19.3993C23.1606 19.9781 22.8178 20.7721 22.8013 21.6069V32.7157C22.79 33.2162 22.5839 33.6918 22.2279 34.0388C21.8719 34.3858 21.395 34.5759 20.9012 34.5678H13.9333V33.3355L14.5665 33.3329ZM35.4666 1.85172H36.7331V9.259H35.4666V1.85172ZM27.8681 9.87618H26.6016V3.70328H27.8681V9.87618ZM32.9338 1.23401H34.2002V9.87618H32.9338V1.23401ZM22.8023 1.23401H31.6673V9.87618H29.1345V3.08609C29.1309 2.91935 29.0622 2.76085 28.9435 2.64535C28.8248 2.52985 28.6658 2.46676 28.5013 2.46993H25.9684C25.8039 2.46676 25.6449 2.52985 25.5262 2.64535C25.4075 2.76085 25.3388 2.91935 25.3352 3.08609V9.87618H22.8023V1.23401ZM20.2695 1.23401H21.5359V9.87618H20.2695V1.23401ZM17.7366 1.85018H19.003V9.259H17.7366V1.85018ZM3.16658 28.3944H5.06572V27.1621H3.16658V24.6907H5.06572V23.4584H3.16658V20.9871H5.06572V19.7548H3.16658V17.2835H5.06572V16.0511H3.16658V13.5798H5.06572V12.3475H3.16658V9.87618H5.06572V8.64386H3.16658V6.17254H5.06572V4.94022H3.16658V3.08609C3.17736 2.58545 3.38313 2.10947 3.73895 1.76208C4.09477 1.41469 4.57175 1.22411 5.06572 1.23196H8.86501C9.35882 1.22383 9.83575 1.414 10.1917 1.76098C10.5477 2.10796 10.7539 2.58358 10.7652 3.08404V6.17049H8.86501V7.40281H10.7652V9.87208H8.86501V11.1044H10.7652V13.5737H8.86501V14.806H10.7652V17.2752H8.86501V18.5076H10.7652V20.9768H8.86501V22.2092H10.7652V24.6784H8.86501V25.9107H10.7652V28.3944H8.86501V29.6267H10.7652V30.859H7.59858V3.70328H6.33215V30.8657H3.16658V28.3944ZM12.6643 35.8017H1.26643V32.098H12.6643V35.8017ZM34.8334 25.9256C35.3272 25.9176 35.8041 26.1079 36.16 26.455C36.5159 26.8021 36.7219 27.2778 36.7331 27.7782V33.9501C36.7218 34.4506 36.5156 34.9262 36.1596 35.2732C35.8037 35.6201 35.3267 35.8103 34.8329 35.8022H32.3001C31.8062 35.8103 31.3293 35.6201 30.9733 35.2732C30.6173 34.9262 30.4112 34.4506 30.3999 33.9501V27.7782C30.4112 27.2778 30.6173 26.8021 30.9733 26.4552C31.3293 26.1082 31.8062 25.918 32.3001 25.9261L34.8334 25.9256ZM34.2002 23.4564V24.6887H32.9338V23.4564H34.2002Z" fill="#3F6D8E"/>
<path d="M36.9258 43.9717H37.1927V45.0541H36.9258V43.9717Z" fill="#F87677"/>
<path d="M36.9258 45.3242H37.1927V45.5948H36.9258V45.3242Z" fill="#F87677"/>
</g>
<defs>
<clipPath id="clip0">
<rect width="38" height="46" fill="white"/>
</clipPath>
</defs>
</svg>
