<?xml version="1.0" encoding="UTF-8" standalone="no"?>
<!-- Created with Inkscape (http://www.inkscape.org/) -->

<svg
   width="400mm"
   height="400mm"
   viewBox="0 0 210 297"
   version="1.1"
   id="svg336"
   inkscape:version="1.1 (c68e22c387, 2021-05-23)"
   sodipodi:docname="Vital Logo.svg"
   xmlns:inkscape="http://www.inkscape.org/namespaces/inkscape"
   xmlns:sodipodi="http://sodipodi.sourceforge.net/DTD/sodipodi-0.dtd"
   xmlns="http://www.w3.org/2000/svg"
   xmlns:svg="http://www.w3.org/2000/svg">
  <sodipodi:namedview
     id="namedview338"
     pagecolor="#ffffff"
     bordercolor="#666666"
     borderopacity="1.0"
     inkscape:pageshadow="2"
     inkscape:pageopacity="0.0"
     inkscape:pagecheckerboard="0"
     inkscape:document-units="mm"
     showgrid="false"
     inkscape:zoom="0.46324355"
     inkscape:cx="-157.58449"
     inkscape:cy="560.1805"
     inkscape:window-width="1366"
     inkscape:window-height="705"
     inkscape:window-x="-8"
     inkscape:window-y="-8"
     inkscape:window-maximized="1"
     inkscape:current-layer="layer1" />
  <defs
     id="defs333" />
  <g
     inkscape:label="Layer 1"
     inkscape:groupmode="layer"
     id="layer1">
    <g
       id="g744">
      <path
         style="fill:#9ee1e4;stroke-width:0.656463"
         d="m 52.559737,163.20462 c -1.419788,-2.90191 -2.788728,-6.21152 -3.042088,-7.3547 -0.748649,-3.37795 0.822514,-2.46883 2.763179,1.59885 2.989001,6.26502 3.265964,6.74557 3.925647,6.81124 0.625131,0.0622 1.37153,-1.22841 4.308904,-7.45078 1.669013,-3.53555 3.156135,-4.12314 2.427886,-0.95931 -0.858325,3.72894 -5.609624,12.6309 -6.741565,12.6309 -0.670515,0 -2.009861,-1.94034 -3.641963,-5.2762 z m 13.450219,0.20678 c 0,-4.7723 0.104178,-5.16321 1.376015,-5.16321 1.283883,0 1.362837,0.3314 1.179211,4.9495 -0.163701,4.11698 -0.395148,4.98544 -1.376014,5.1632 -1.044278,0.18926 -1.179212,-0.3771 -1.179212,-4.94949 z m 8.086023,3.79034 c -0.988292,-0.93799 -1.34767,-2.13179 -1.34767,-4.47677 0,-2.41604 -0.247074,-3.1977 -1.010753,-3.1977 -0.555914,0 -1.010753,-0.28779 -1.010753,-0.63954 0,-0.35175 0.454839,-0.63954 1.010753,-0.63954 0.561529,0 1.010753,-0.56848 1.010753,-1.27908 0,-0.7106 0.449223,-1.27908 1.010752,-1.27908 0.56153,0 1.010753,0.56848 1.010753,1.27908 0,0.7106 0.449224,1.27908 1.010753,1.27908 0.555914,0 1.010753,0.28779 1.010753,0.63954 0,0.35175 -0.454839,0.63954 -1.010753,0.63954 -0.720393,0 -1.008109,0.68895 -1.001551,2.39827 0.01282,3.33982 0.656529,5.2762 1.753977,5.2762 0.512689,0 0.932162,0.28779 0.932162,0.63954 0,1.07983 -1.947005,0.71025 -3.369176,-0.63954 z m 6.87312,0.51163 c -1.171434,-1.11181 -1.001997,-4.14158 0.257261,-4.60021 0.586226,-0.21351 2.102356,-0.38819 3.369177,-0.38819 2.337299,0 2.846918,-0.75309 1.686597,-2.49234 -0.418157,-0.62679 -1.333435,-0.77992 -3.066376,-0.51302 -1.758503,0.27084 -2.393862,0.15974 -2.205032,-0.38559 0.358901,-1.03647 5.748764,-1.35222 6.948676,-0.40706 1.145891,0.9026 1.386733,9.55386 0.26597,9.55386 -0.382241,0 -0.866532,-0.4243 -1.076201,-0.94287 -0.335906,-0.83081 -0.499295,-0.83081 -1.374654,0 -1.19988,1.1388 -3.694422,1.22987 -4.805418,0.17542 z m 5.121148,-1.91862 c 1.222599,-1.16037 0.969716,-2.43024 -0.483957,-2.43024 -2.183939,0 -3.424288,0.71975 -3.424288,1.98704 0,1.39917 2.591384,1.69304 3.908245,0.4432 z m 6.662546,2.27304 c -0.718998,-0.68241 -0.52532,-13.2175 0.220892,-14.29637 1.34186,-1.94006 2.017741,0.85282 1.844645,7.62244 -0.157469,6.15838 -0.714021,7.95665 -2.065537,6.67393 z M 66.310587,154.99477 c -0.694402,-1.06638 0.867367,-2.28923 1.796929,-1.40698 0.777555,0.73797 0.290909,2.10224 -0.74989,2.10224 -0.326864,0 -0.798032,-0.31286 -1.047039,-0.69526 z m 29.395481,-4.86296 c -0.02605,-0.77067 0.255866,-1.57909 0.626475,-1.79648 0.797001,-0.4675 0.797001,0.1583 0,1.91862 -0.558334,1.23319 -0.580813,1.2288 -0.626475,-0.12214 z m -7.459548,-5.31394 c 0,-0.35175 0.472734,-0.63954 1.050521,-0.63954 0.577786,0 0.863116,0.28779 0.634067,0.63954 -0.229049,0.35174 -0.701783,0.63954 -1.050521,0.63954 -0.348737,0 -0.634067,-0.2878 -0.634067,-0.63954 z m 5.390682,0 c 0,-0.35175 0.303226,-0.63954 0.673835,-0.63954 0.37061,0 0.673836,0.28779 0.673836,0.63954 0,0.35174 -0.303226,0.63954 -0.673836,0.63954 -0.370609,0 -0.673835,-0.2878 -0.673835,-0.63954 z m 7.412188,0 c 0,-0.35175 0.60645,-0.63954 1.34767,-0.63954 0.74122,0 1.34767,0.28779 1.34767,0.63954 0,0.35174 -0.60645,0.63954 -1.34767,0.63954 -0.74122,0 -1.34767,-0.2878 -1.34767,-0.63954 z m -5.390682,-5.07857 c 0,-1.076 0.303226,-1.95636 0.673835,-1.95636 0.37061,0 0.673835,0.70249 0.673835,1.5611 0,0.85861 -0.303225,1.73897 -0.673835,1.95636 -0.393131,0.2306 -0.673835,-0.41972 -0.673835,-1.5611 z m -54.24374,-6.96574 c -5.502993,-2.50048 -8.260052,-7.27619 -6.966529,-12.06726 0.360736,-1.33612 1.019438,-2.89598 1.463784,-3.46636 1.59549,-2.04804 6.027093,-4.39903 8.292118,-4.39903 2.479444,0 2.833508,-0.83056 1.218426,-2.85817 -1.730267,-2.17221 -2.449884,-5.84298 -1.665093,-8.49366 1.079837,-3.647205 5.013636,-7.194812 7.978042,-7.194812 0.683242,0 2.774394,-1.438963 4.647005,-3.197696 3.321185,-3.119216 3.503468,-3.197697 7.427095,-3.197697 4.576381,0 7.550942,1.473846 10.034833,4.972095 l 1.465328,2.063731 1.388178,-2.233038 c 2.023197,-3.254534 5.087894,-4.798006 9.526859,-4.798006 4.228694,0 7.656672,1.598829 8.876657,4.140125 0.53103,1.106164 1.500389,1.714322 3.186977,1.99945 3.048162,0.515312 6.476592,2.911796 7.898132,5.520823 1.47,2.697985 1.29064,7.150385 -0.39743,9.865825 -0.75393,1.21278 -1.37078,2.43897 -1.37078,2.72487 0,0.28589 1.34469,0.66366 2.9882,0.83948 5.33345,0.57056 9.14083,4.87168 9.14083,10.32619 0,3.26307 -1.94735,6.35657 -5.40672,8.58896 -2.16732,1.39861 -2.84598,1.49061 -9.08074,1.23097 -7.032948,-0.29288 -13.127745,-1.91013 -22.149948,-5.87746 -4.436033,-1.95066 -3.847807,-2.01709 -12.552566,1.41756 -11.987789,4.73004 -21.30553,6.20015 -25.942658,4.09311 z"
         id="path758" />
      <path
         style="fill:#56c8cb;stroke-width:0.656463"
         d="m 52.576689,163.1344 c -2.897347,-5.9804 -3.910235,-9.36298 -2.803671,-9.36298 0.770462,0 4.105003,5.81675 4.112343,7.17355 0.0024,0.45138 0.558184,1.61772 1.234981,2.59188 l 1.230542,1.77118 1.36061,-2.73049 c 0.748334,-1.50178 2.008007,-4.09752 2.799272,-5.76831 1.674603,-3.53601 3.160487,-4.122 2.432499,-0.95931 -0.851304,3.69844 -5.609787,12.6309 -6.728704,12.6309 -0.657561,0 -2.012153,-1.99078 -3.637872,-5.34642 z m 13.433267,0.277 c 0,-4.7723 0.104178,-5.16321 1.376015,-5.16321 1.283883,0 1.362837,0.3314 1.179211,4.9495 -0.163701,4.11698 -0.395148,4.98544 -1.376014,5.1632 -1.044278,0.18926 -1.179212,-0.3771 -1.179212,-4.94949 z m 8.086023,3.79034 c -0.988292,-0.93799 -1.34767,-2.13179 -1.34767,-4.47677 0,-2.41604 -0.247074,-3.1977 -1.010753,-3.1977 -0.555914,0 -1.010753,-0.28779 -1.010753,-0.63954 0,-0.35175 0.454839,-0.63954 1.010753,-0.63954 0.561529,0 1.010753,-0.56848 1.010753,-1.27908 0,-0.7106 0.449223,-1.27908 1.010752,-1.27908 0.56153,0 1.010753,0.56848 1.010753,1.27908 0,0.7106 0.449224,1.27908 1.010753,1.27908 0.555914,0 1.010753,0.28779 1.010753,0.63954 0,0.35175 -0.454839,0.63954 -1.010753,0.63954 -0.720393,0 -1.008109,0.68895 -1.001551,2.39827 0.01282,3.33982 0.656529,5.2762 1.753977,5.2762 0.512689,0 0.932162,0.28779 0.932162,0.63954 0,1.07983 -1.947005,0.71025 -3.369176,-0.63954 z m 6.87312,0.51163 c -1.171434,-1.11181 -1.001997,-4.14158 0.257261,-4.60021 0.586226,-0.21351 2.102356,-0.38819 3.369177,-0.38819 2.337299,0 2.846918,-0.75309 1.686597,-2.49234 -0.418157,-0.62679 -1.333435,-0.77992 -3.066376,-0.51302 -1.758503,0.27084 -2.393862,0.15974 -2.205032,-0.38559 0.358901,-1.03647 5.748764,-1.35222 6.948676,-0.40706 1.145891,0.9026 1.386733,9.55386 0.26597,9.55386 -0.382241,0 -0.866532,-0.4243 -1.076201,-0.94287 -0.335906,-0.83081 -0.499295,-0.83081 -1.374654,0 -1.19988,1.1388 -3.694422,1.22987 -4.805418,0.17542 z m 5.121148,-1.91862 c 1.222599,-1.16037 0.969716,-2.43024 -0.483957,-2.43024 -2.183939,0 -3.424288,0.71975 -3.424288,1.98704 0,1.39917 2.591384,1.69304 3.908245,0.4432 z m 6.662546,2.27304 c -0.718998,-0.68241 -0.52532,-13.2175 0.220892,-14.29637 1.34186,-1.94006 2.017741,0.85282 1.844645,7.62244 -0.157469,6.15838 -0.714021,7.95665 -2.065537,6.67393 z M 66.310587,154.99477 c -0.694402,-1.06638 0.867367,-2.28923 1.796929,-1.40698 0.777555,0.73797 0.290909,2.10224 -0.74989,2.10224 -0.326864,0 -0.798032,-0.31286 -1.047039,-0.69526 z M 40.741133,132.0399 c -4.387192,-2.21021 -6.042056,-4.71378 -6.042056,-9.14077 0,-3.64805 0.09898,-3.8575 3.09092,-6.5405 2.386209,-2.13981 3.804731,-2.87335 6.221746,-3.21736 1.721954,-0.24508 3.130825,-0.54159 3.130825,-0.65891 0,-0.11732 -0.783833,-1.59555 -1.741851,-3.28496 -3.013909,-5.31485 -1.485738,-10.698299 3.855103,-13.580768 1.347592,-0.7273 2.903539,-1.322364 3.457658,-1.322364 0.554119,0 1.817218,-1.007577 2.806887,-2.23906 2.364631,-2.942401 4.979234,-4.156333 8.952037,-4.156333 3.939842,0 7.67996,2.154761 9.461793,5.451139 l 1.197046,2.214528 1.630107,-2.503325 c 4.183299,-6.424215 13.851188,-6.930498 18.167832,-0.951404 0.998003,1.382359 2.127151,2.184455 3.075161,2.184455 0.823945,0 2.500519,0.647533 3.725739,1.438963 5.31016,3.430125 6.67087,8.311019 3.75358,13.464169 -0.95641,1.68941 -1.73893,3.17502 -1.73893,3.30136 0,0.12635 1.28871,0.43151 2.8638,0.67814 1.57509,0.24663 3.65657,0.88652 4.6255,1.42197 2.36097,1.30471 5.31357,5.74101 5.31357,7.98368 0,4.45006 -4.53409,9.63364 -9.14464,10.45456 -5.8197,1.03621 -17.607718,-1.60927 -27.646525,-6.20447 l -4.343413,-1.98818 -4.533074,2.05956 c -7.416481,3.3696 -16.132246,5.80667 -22.052792,6.16631 -4.61763,0.28049 -5.777208,0.13272 -8.086023,-1.03043 z"
         id="path756" />
      <path
         style="fill:#2eccd4;stroke-width:0.656463"
         d="m 52.68541,162.88485 c -3.149179,-6.43484 -4.010915,-9.11343 -2.931901,-9.11343 0.784808,0 4.124411,5.79808 4.131852,7.17355 0.0024,0.45138 0.558184,1.61772 1.234981,2.59188 l 1.230542,1.77118 1.36061,-2.73049 c 0.748334,-1.50178 2.008007,-4.09752 2.799272,-5.76831 1.674628,-3.53607 3.161525,-4.12285 2.430882,-0.95931 -0.688395,2.98061 -5.849168,12.6309 -6.754743,12.6309 -0.41957,0 -1.995242,-2.51819 -3.501495,-5.59597 z m 13.324546,0.43276 c 0,-4.57204 0.135016,-5.13885 1.179212,-4.95044 0.918383,0.16571 1.225277,0.98191 1.387478,3.69007 0.257195,4.29423 -0.262837,6.42358 -1.568775,6.42358 -0.798926,0 -0.997915,-1.02957 -0.997915,-5.16321 z m 8.086023,3.88413 c -0.988292,-0.93799 -1.34767,-2.13179 -1.34767,-4.47677 0,-2.41604 -0.247074,-3.1977 -1.010753,-3.1977 -0.555914,0 -1.010753,-0.28779 -1.010753,-0.63954 0,-0.35175 0.454839,-0.63954 1.010753,-0.63954 0.561529,0 1.010753,-0.56848 1.010753,-1.27908 0,-0.7106 0.449223,-1.27908 1.010752,-1.27908 0.56153,0 1.010753,0.56848 1.010753,1.27908 0,0.7106 0.449224,1.27908 1.010753,1.27908 0.555914,0 1.010753,0.28779 1.010753,0.63954 0,0.35175 -0.454839,0.63954 -1.010753,0.63954 -0.720393,0 -1.008109,0.68895 -1.001551,2.39827 0.01282,3.33982 0.656529,5.2762 1.753977,5.2762 0.512689,0 0.932162,0.28779 0.932162,0.63954 0,1.07983 -1.947005,0.71025 -3.369176,-0.63954 z m 6.87312,0.51163 c -1.171434,-1.11181 -1.001997,-4.14158 0.257261,-4.60021 0.586226,-0.21351 2.123445,-0.38819 3.416043,-0.38819 2.051798,0 2.322841,-0.18269 2.134853,-1.43897 -0.186606,-1.24704 -0.599926,-1.43141 -3.099,-1.38237 -3.787692,0.0743 -3.386471,-1.26723 0.458964,-1.53464 4.107143,-0.2856 4.783135,0.52186 4.783135,5.71336 0,4.12081 -0.839788,5.75924 -1.771184,3.4556 -0.335906,-0.83081 -0.499295,-0.83081 -1.374654,0 -1.19988,1.1388 -3.694422,1.22987 -4.805418,0.17542 z m 5.92975,-3.48868 c 0,-0.8995 -1.828231,-1.13585 -3.650983,-0.47199 -1.438108,0.52376 -1.356834,2.65307 0.113348,2.96958 1.36569,0.29401 3.537635,-1.23939 3.537635,-2.49759 z m 5.853944,3.8431 c -0.718998,-0.68241 -0.52532,-13.2175 0.220892,-14.29637 1.34186,-1.94006 2.017741,0.85282 1.844645,7.62244 -0.157469,6.15838 -0.714021,7.95665 -2.065537,6.67393 z M 66.310587,154.99477 c -0.694402,-1.06638 0.867367,-2.28923 1.796929,-1.40698 0.777555,0.73797 0.290909,2.10224 -0.74989,2.10224 -0.326864,0 -0.798032,-0.31286 -1.047039,-0.69526 z m -25.082508,-23.3452 c -5.155741,-2.51734 -7.58976,-8.46678 -5.108885,-12.48758 1.818721,-2.94764 4.536402,-4.61716 8.161197,-5.01359 3.465619,-0.37902 4.493952,-1.76875 2.622842,-3.54463 -0.556365,-0.52805 -1.373919,-2.49681 -1.816786,-4.37502 -0.701016,-2.97304 -0.651217,-3.72294 0.38484,-5.79515 1.224255,-2.448611 5.178034,-5.499793 7.126742,-5.499793 0.604784,0 1.924682,-1.129986 2.933106,-2.511079 4.550136,-6.231669 13.543546,-5.915831 18.017433,0.632752 l 1.694703,2.480595 1.616318,-2.359092 c 4.688256,-6.842725 14.08577,-7.123189 18.176702,-0.542475 1.00459,1.615994 1.975138,2.277827 3.822756,2.6068 1.557933,0.277394 3.297963,1.26777 4.691753,2.670402 2.01739,2.030184 2.2141,2.58273 2.20045,6.18107 -0.0111,2.93461 -0.3541,4.36306 -1.33268,5.55043 -0.72474,0.87937 -1.32445,1.94846 -1.33269,2.37577 -0.0207,1.07398 2.55298,2.2818 4.06339,1.90692 1.37497,-0.34126 4.90686,1.87768 7.05105,4.42988 1.15391,1.37349 1.31413,2.23511 0.9984,5.3693 -0.42225,4.19171 -1.59696,5.82482 -5.57634,7.75243 -2.31234,1.12009 -3.14492,1.17311 -9.09678,0.57925 -7.019949,-0.70042 -14.463319,-2.81533 -20.092033,-5.7088 -1.917782,-0.98585 -4.05248,-1.72759 -4.743773,-1.64831 -2.79831,0.32091 -5.636827,1.12106 -5.636827,1.58896 0,0.54885 -1.625315,1.17695 -10.107529,3.90599 -7.380848,2.37469 -15.535427,3.00857 -18.717359,1.45497 z"
         id="path754" />
      <path
         style="fill:#0b8892;stroke-width:0.656463"
         d="m 52.68541,162.88485 c -3.149179,-6.43484 -4.010915,-9.11343 -2.931901,-9.11343 0.784808,0 4.124411,5.79808 4.131852,7.17355 0.0024,0.45138 0.558184,1.61772 1.234981,2.59188 l 1.230542,1.77118 1.36061,-2.73049 c 0.748334,-1.50178 2.008007,-4.09752 2.799272,-5.76831 1.674628,-3.53607 3.161525,-4.12285 2.430882,-0.95931 -0.688395,2.98061 -5.849168,12.6309 -6.754743,12.6309 -0.41957,0 -1.995242,-2.51819 -3.501495,-5.59597 z m 13.324546,0.43276 c 0,-4.57204 0.135016,-5.13885 1.179212,-4.95044 0.918383,0.16571 1.225277,0.98191 1.387478,3.69007 0.257195,4.29423 -0.262837,6.42358 -1.568775,6.42358 -0.798926,0 -0.997915,-1.02957 -0.997915,-5.16321 z m 8.086023,3.88413 c -0.988292,-0.93799 -1.34767,-2.13179 -1.34767,-4.47677 0,-2.41604 -0.247074,-3.1977 -1.010753,-3.1977 -0.555914,0 -1.010753,-0.28779 -1.010753,-0.63954 0,-0.35175 0.454839,-0.63954 1.010753,-0.63954 0.561529,0 1.010753,-0.56848 1.010753,-1.27908 0,-0.7106 0.449223,-1.27908 1.010752,-1.27908 0.56153,0 1.010753,0.56848 1.010753,1.27908 0,0.7106 0.449224,1.27908 1.010753,1.27908 0.555914,0 1.010753,0.28779 1.010753,0.63954 0,0.35175 -0.454839,0.63954 -1.010753,0.63954 -0.720393,0 -1.008109,0.68895 -1.001551,2.39827 0.01282,3.33982 0.656529,5.2762 1.753977,5.2762 0.512689,0 0.932162,0.28779 0.932162,0.63954 0,1.07983 -1.947005,0.71025 -3.369176,-0.63954 z m 6.87312,0.51163 c -1.171434,-1.11181 -1.001997,-4.14158 0.257261,-4.60021 0.586226,-0.21351 2.123445,-0.38819 3.416043,-0.38819 2.051798,0 2.322841,-0.18269 2.134853,-1.43897 -0.186606,-1.24704 -0.599926,-1.43141 -3.099,-1.38237 -3.787692,0.0743 -3.386471,-1.26723 0.458964,-1.53464 4.107143,-0.2856 4.783135,0.52186 4.783135,5.71336 0,4.12081 -0.839788,5.75924 -1.771184,3.4556 -0.335906,-0.83081 -0.499295,-0.83081 -1.374654,0 -1.19988,1.1388 -3.694422,1.22987 -4.805418,0.17542 z m 5.92975,-3.48868 c 0,-0.8995 -1.828231,-1.13585 -3.650983,-0.47199 -1.438108,0.52376 -1.356834,2.65307 0.113348,2.96958 1.36569,0.29401 3.537635,-1.23939 3.537635,-2.49759 z m 5.853944,3.8431 c -0.718998,-0.68241 -0.52532,-13.2175 0.220892,-14.29637 1.34186,-1.94006 2.017741,0.85282 1.844645,7.62244 -0.157469,6.15838 -0.714021,7.95665 -2.065537,6.67393 z M 66.310587,154.99477 c -0.694402,-1.06638 0.867367,-2.28923 1.796929,-1.40698 0.777555,0.73797 0.290909,2.10224 -0.74989,2.10224 -0.326864,0 -0.798032,-0.31286 -1.047039,-0.69526 z m 4.903694,-32.84703 C 66.057698,118.161 58.691916,110.4176 55.924245,106.07383 54.000271,103.05421 53.583786,101.76574 53.565821,98.777574 53.500088,87.844092 67.290417,83.895207 73.548568,93.05548 l 1.694703,2.480595 1.616318,-2.359092 c 4.921638,-7.183357 14.270084,-7.094497 18.609314,0.176888 3.812783,6.389201 1.076271,12.299069 -11.022197,23.803929 -4.531221,4.30889 -8.534406,7.83435 -8.895968,7.83435 -0.361562,0 -2.312967,-1.27999 -4.336457,-2.84441 z"
         id="path752" />
      <path
         style="fill:#0a7c87;stroke-width:0.656463"
         d="m 52.68541,162.88485 c -3.149179,-6.43484 -4.010915,-9.11343 -2.931901,-9.11343 0.784808,0 4.124411,5.79808 4.131852,7.17355 0.0024,0.45138 0.558184,1.61772 1.234981,2.59188 l 1.230542,1.77118 1.36061,-2.73049 c 0.748334,-1.50178 2.008007,-4.09752 2.799272,-5.76831 1.674628,-3.53607 3.161525,-4.12285 2.430882,-0.95931 -0.688395,2.98061 -5.849168,12.6309 -6.754743,12.6309 -0.41957,0 -1.995242,-2.51819 -3.501495,-5.59597 z m 13.324546,0.43276 c 0,-4.57386 0.134599,-5.13837 1.179212,-4.94565 0.968071,0.17861 1.193232,0.95995 1.257514,4.36378 0.08933,4.73032 -0.175273,5.74508 -1.498066,5.74508 -0.724812,0 -0.93866,-1.1763 -0.93866,-5.16321 z m 8.086023,3.88413 c -0.988292,-0.93799 -1.34767,-2.13179 -1.34767,-4.47677 0,-2.41604 -0.247074,-3.1977 -1.010753,-3.1977 -0.555914,0 -1.010753,-0.28779 -1.010753,-0.63954 0,-0.35175 0.454839,-0.63954 1.010753,-0.63954 0.561529,0 1.010753,-0.56848 1.010753,-1.27908 0,-0.7106 0.449223,-1.27908 1.010752,-1.27908 0.56153,0 1.010753,0.56848 1.010753,1.27908 0,0.7106 0.449224,1.27908 1.010753,1.27908 0.555914,0 1.010753,0.28779 1.010753,0.63954 0,0.35175 -0.454839,0.63954 -1.010753,0.63954 -0.720393,0 -1.008109,0.68895 -1.001551,2.39827 0.01282,3.33982 0.656529,5.2762 1.753977,5.2762 0.512689,0 0.932162,0.28779 0.932162,0.63954 0,1.07983 -1.947005,0.71025 -3.369176,-0.63954 z m 6.87312,0.51163 c -1.171434,-1.11181 -1.001997,-4.14158 0.257261,-4.60021 0.586226,-0.21351 2.123445,-0.38819 3.416043,-0.38819 2.051798,0 2.322841,-0.18269 2.134853,-1.43897 -0.186606,-1.24704 -0.599926,-1.43141 -3.099,-1.38237 -3.787692,0.0743 -3.386471,-1.26723 0.458964,-1.53464 4.107143,-0.2856 4.783135,0.52186 4.783135,5.71336 0,4.12081 -0.839788,5.75924 -1.771184,3.4556 -0.335906,-0.83081 -0.499295,-0.83081 -1.374654,0 -1.19988,1.1388 -3.694422,1.22987 -4.805418,0.17542 z m 5.92975,-3.48868 c 0,-0.8995 -1.828231,-1.13585 -3.650983,-0.47199 -1.438108,0.52376 -1.356834,2.65307 0.113348,2.96958 1.36569,0.29401 3.537635,-1.23939 3.537635,-2.49759 z m 5.853944,3.8431 c -0.718998,-0.68241 -0.52532,-13.2175 0.220892,-14.29637 1.34186,-1.94006 2.017741,0.85282 1.844645,7.62244 -0.157469,6.15838 -0.714021,7.95665 -2.065537,6.67393 z M 66.310587,154.99477 c -0.694402,-1.06638 0.867367,-2.28923 1.796929,-1.40698 0.777555,0.73797 0.290909,2.10224 -0.74989,2.10224 -0.326864,0 -0.798032,-0.31286 -1.047039,-0.69526 z m 8.338822,-30.50534 c -0.119082,-0.25112 -1.225261,-1.24802 -2.458177,-2.21532 -1.732734,-1.35944 -1.962208,-1.76096 -1.010753,-1.76853 1.009765,-0.008 1.0551,-0.11535 0.252332,-0.59734 -0.538219,-0.32315 -1.220477,-0.44565 -1.516129,-0.27223 -0.295652,0.17342 -0.53755,-0.006 -0.53755,-0.39971 0,-0.39327 -0.227419,-0.58435 -0.505376,-0.42464 -0.718501,0.41285 -2.204179,-1.25722 -1.644084,-1.84814 0.25568,-0.26974 0.133886,-0.31161 -0.270652,-0.093 -1.052489,0.56868 -5.269142,-3.72624 -4.626797,-4.71268 0.32235,-0.49502 0.240105,-0.63132 -0.218596,-0.36225 -0.877603,0.51478 -5.282773,-4.48934 -5.014119,-5.69587 0.102481,-0.46024 -0.171789,-1.04687 -0.609489,-1.30361 -0.532967,-0.31263 -0.615762,-0.1903 -0.250675,0.37035 0.356479,0.54744 0.281652,0.68261 -0.216209,0.39058 -0.418744,-0.24563 -0.658589,-1.28428 -0.532988,-2.30811 0.134857,-1.09929 -0.07232,-1.80796 -0.505975,-1.73072 -1.162429,0.20704 -1.292901,-2.574115 -0.216803,-4.621415 0.823912,-1.56751 0.830283,-1.811814 0.03974,-1.523894 -0.683999,0.249115 -0.813618,0.01734 -0.473959,-0.847511 3.147811,-8.01508 14.167929,-8.858061 19.215415,-1.46988 l 1.694703,2.480595 1.616318,-2.359092 c 3.479576,-5.0786 9.758388,-6.800621 14.593807,-4.002484 2.414819,1.397396 5.058895,4.992885 4.572991,6.218481 -0.169851,0.428419 -0.01884,0.949041 0.335585,1.156938 0.963337,0.565072 0.777484,3.035276 -0.342557,4.552972 -0.542829,0.73555 -0.812976,1.5025 -0.600325,1.70432 0.21265,0.20183 -0.252894,1.21939 -1.034543,2.26124 -0.781649,1.04186 -1.42118,2.14099 -1.42118,2.44253 0,1.14518 -10.314637,11.1472 -11.173165,10.83452 -0.526706,-0.19183 -0.751802,0.0118 -0.553944,0.5012 0.183311,0.45339 -0.718922,1.50863 -2.004963,2.34499 -1.28604,0.83636 -2.229143,1.68822 -2.095783,1.89301 0.133359,0.2048 -0.322742,0.70738 -1.01356,1.11684 -0.690818,0.40947 -1.353462,0.53902 -1.472543,0.28789 z M 88.24652,112.52114 c 0,-0.10061 -0.404301,-0.33018 -0.898447,-0.51015 -0.494146,-0.17997 -0.898447,0.0496 -0.898447,0.51015 0,0.46054 0.404301,0.69011 0.898447,0.51014 0.494146,-0.17997 0.898447,-0.40954 0.898447,-0.51014 z m -26.696305,-2.59138 c 0.230112,-0.56914 0.117146,-0.82585 -0.264824,-0.60179 -0.366364,0.2149 -0.666117,0.66153 -0.666117,0.99252 0,0.91994 0.482982,0.71722 0.930941,-0.39073 z M 60.947695,108.24 c 0.365938,-0.25233 0.02022,-0.41267 -0.768259,-0.35629 -0.896211,0.0641 -1.303853,0.4234 -1.087472,0.95858 0.190371,0.47084 0.536088,0.63118 0.76826,0.35629 0.232172,-0.27489 0.721534,-0.70625 1.087471,-0.95858 z"
         id="path750" />
      <path
         style="fill:#28676f;stroke-width:0.656463"
         d="m 52.922313,163.38654 c -1.385338,-2.80186 -2.295982,-5.43646 -2.023652,-5.85467 0.334571,-0.51379 0.205723,-0.59062 -0.397314,-0.23689 -0.648008,0.38011 -0.774602,0.232 -0.462179,-0.54073 0.236654,-0.58532 0.136571,-1.06422 -0.222407,-1.06422 -0.358978,0 -0.652687,-0.43168 -0.652687,-0.9593 0,-2.04919 1.441036,-0.79486 3.122612,2.71804 0.968164,2.02254 2.253579,4.66905 2.856478,5.88113 0.602899,1.21207 1.020374,2.43519 0.927721,2.71804 -0.09265,0.28284 0.167209,0.51426 0.57747,0.51426 0.41026,0 0.573806,-0.42571 0.363436,-0.94602 -0.21037,-0.52032 0.170201,-2.03123 0.845714,-3.35759 0.675513,-1.32635 1.872543,-3.77857 2.660065,-5.44936 1.666383,-3.53537 3.155109,-4.12452 2.424078,-0.95931 -0.684997,2.9659 -5.847112,12.6309 -6.746213,12.6309 -0.414878,0 -1.887783,-2.29243 -3.273122,-5.09428 z m 13.087643,-0.0689 c 0,-4.57204 0.135016,-5.13885 1.179212,-4.95044 0.919416,0.1659 1.22525,0.98313 1.388184,3.70941 0.114935,1.92314 -0.02767,3.27203 -0.316907,2.99751 -0.289234,-0.27451 -0.438484,-1.46188 -0.331667,-2.63861 0.106817,-1.17672 -0.129607,-2.32944 -0.525387,-2.5616 -0.469315,-0.27529 -0.7196,0.57381 -0.7196,2.44127 0,3.27952 0.547077,5.03643 1.41056,4.52993 0.32753,-0.19212 0.414928,0.0973 0.194217,0.64321 -0.220711,0.54589 -0.823689,0.99253 -1.339952,0.99253 -0.724812,0 -0.93866,-1.1763 -0.93866,-5.16321 z m 8.086023,3.88413 c -0.988292,-0.93799 -1.34767,-2.13179 -1.34767,-4.47677 0,-2.41604 -0.247074,-3.1977 -1.010753,-3.1977 -0.555914,0 -1.010753,-0.28779 -1.010753,-0.63954 0,-0.35175 0.454839,-0.63954 1.010753,-0.63954 0.561529,0 1.010753,-0.56848 1.010753,-1.27908 0,-0.7106 0.449223,-1.27908 1.010752,-1.27908 0.56153,0 1.010753,0.56848 1.010753,1.27908 0,0.7106 0.449224,1.27908 1.010753,1.27908 0.555914,0 1.010753,0.28779 1.010753,0.63954 0,0.35175 -0.454839,0.63954 -1.010753,0.63954 -0.720393,0 -1.008109,0.68895 -1.001551,2.39827 0.01282,3.33982 0.656529,5.2762 1.753977,5.2762 0.512689,0 0.932162,0.28779 0.932162,0.63954 0,1.07983 -1.947005,0.71025 -3.369176,-0.63954 z m 6.87312,0.51163 c -1.171434,-1.11181 -1.001997,-4.14158 0.257261,-4.60021 0.586226,-0.21351 2.123445,-0.38819 3.416043,-0.38819 2.051798,0 2.322841,-0.18269 2.134853,-1.43897 -0.186606,-1.24704 -0.599926,-1.43141 -3.099,-1.38237 -3.787692,0.0743 -3.386471,-1.26723 0.458964,-1.53464 4.107143,-0.2856 4.783135,0.52186 4.783135,5.71336 0,4.12081 -0.839788,5.75924 -1.771184,3.4556 -0.335906,-0.83081 -0.499295,-0.83081 -1.374654,0 -1.19988,1.1388 -3.694422,1.22987 -4.805418,0.17542 z m 5.92975,-3.48868 c 0,-0.8995 -1.828231,-1.13585 -3.650983,-0.47199 -1.438108,0.52376 -1.356834,2.65307 0.113348,2.96958 1.36569,0.29401 3.537635,-1.23939 3.537635,-2.49759 z m 5.853944,3.8431 c -0.718998,-0.68241 -0.52532,-13.2175 0.220892,-14.29637 1.34186,-1.94006 2.017741,0.85282 1.844645,7.62244 -0.157469,6.15838 -0.714021,7.95665 -2.065537,6.67393 z M 66.310587,154.99477 c -0.694402,-1.06638 0.867367,-2.28923 1.796929,-1.40698 0.777555,0.73797 0.290909,2.10224 -0.74989,2.10224 -0.326864,0 -0.798032,-0.31286 -1.047039,-0.69526 z m 7.840504,-32.81752 c -0.39449,-0.45114 -0.559857,-0.96964 -0.367481,-1.15222 0.599287,-0.56879 -5.447184,-15.37948 -7.572905,-18.54966 -3.406805,-5.080711 -7.701616,-8.106201 -10.813655,-7.617706 -2.639057,0.41425 1.677308,-5.161648 4.894317,-6.322501 4.740669,-1.710663 10.293896,0.182825 13.257201,4.520317 l 1.694703,2.480595 1.616318,-2.359092 c 4.346571,-6.344019 12.848861,-7.168816 17.391951,-1.687172 1.852029,2.234638 1.784018,2.573038 -0.608395,3.027167 -2.923075,0.55486 -7.791476,5.684312 -10.851352,11.433212 -2.610352,4.90434 -6.000473,13.61002 -6.000473,15.40895 0,1.28098 -1.758895,1.826 -2.640229,0.81811 z"
         id="path748" />
      <path
         style="fill:#146f76;stroke-width:0.656463"
         d="m 81.999153,167.75687 c -1.257855,-0.6681 -1.590538,-3.42762 -0.490986,-4.07259 0.391754,-0.2298 0.673835,0.40408 0.673835,1.51421 0,1.30769 0.371633,1.97936 1.179212,2.13125 0.659832,0.12409 0.876085,0.40325 0.490986,0.6338 -0.378524,0.22661 -1.212395,0.13361 -1.853047,-0.20667 z M 52.88186,162.56508 c -2.280204,-4.61827 -3.462677,-8.15412 -2.726935,-8.15412 0.400194,0 3.725996,6.59986 3.725996,7.39402 0,0.41112 0.596519,1.46725 1.325599,2.34695 0.72908,0.87969 1.133381,1.78189 0.898447,2.00486 -0.234934,0.22298 -0.0601,0.40541 0.388528,0.40541 0.448624,0 0.739522,-0.35974 0.64644,-0.79942 -0.303203,-1.43222 4.788606,-11.44984 5.582952,-10.98389 0.310271,0.182 0.279344,0.8212 -0.06873,1.42045 -0.885048,1.52373 -4.496251,9.16962 -4.969956,10.52275 -0.792205,2.26291 -2.259861,0.99248 -4.802343,-4.15701 z m 13.855128,4.15701 c 0.03209,-0.6752 0.188586,-0.80047 0.394471,-0.31579 0.187699,0.44188 0.665451,0.61326 1.061668,0.38084 0.425797,-0.24976 0.523778,-0.12062 0.239598,0.31579 -0.726665,1.11592 -1.755893,0.88477 -1.695737,-0.38084 z m 7.358991,-0.15989 c -0.94836,-0.90009 -1.34767,-2.13179 -1.34767,-4.157 0,-1.58286 -0.305796,-2.87793 -0.679546,-2.87793 -0.406923,0 -0.33934,-0.57729 0.168459,-1.43896 0.466402,-0.79143 0.898542,-1.5349 0.96031,-1.65214 0.06177,-0.11726 0.784903,0.42518 1.606967,1.2054 1.338105,1.27 1.379276,1.47987 0.39307,2.00369 -1.90904,1.01398 -1.100157,6.2557 1.189251,7.70657 0.513043,0.32513 0.48197,0.47288 -0.100876,0.47966 -0.463262,0.005 -1.448746,-0.5658 -2.189965,-1.26929 z m 13.043254,0.31163 c -0.215135,-0.5321 0.0218,-1.45072 0.526524,-2.04138 0.632347,-0.74002 0.655787,-0.9246 0.07539,-0.59366 -1.016691,0.57972 -1.071804,-0.21809 -0.170495,-2.46805 0.386153,-0.96396 0.405951,-1.52109 0.04656,-1.31028 -0.343881,0.20172 -0.815698,0.0743 -1.048484,-0.28322 -0.232787,-0.35748 -1.365567,-0.64997 -2.517292,-0.64997 -1.151724,0 -1.884079,-0.19928 -1.627455,-0.44284 0.942047,-0.8941 3.371848,-0.83121 4.912954,0.12718 1.369669,0.85176 1.583422,1.5007 1.583422,4.80718 0,3.62286 -0.892354,5.05324 -1.781122,2.85504 z m 5.824134,-5.74771 c 0,-4.05041 0.267394,-6.71516 0.673835,-6.71516 0.406441,0 0.673835,2.66475 0.673835,6.71516 0,4.05041 -0.267394,6.71516 -0.673835,6.71516 -0.406441,0 -0.673835,-2.66475 -0.673835,-6.71516 z m -26.831954,1.11919 c -0.09439,-2.60939 0.103775,-3.35758 0.889296,-3.35758 0.555914,0 1.010753,0.30478 1.010753,0.67729 0,0.3725 -0.286308,0.50934 -0.63624,0.30407 -0.353866,-0.20757 -0.748551,0.98199 -0.889296,2.6803 l -0.253055,3.0535 z m 1.591907,2.44247 c -0.213222,-0.32745 -0.0795,-0.77612 0.29715,-0.99706 0.376655,-0.22093 0.684827,0.047 0.684827,0.59535 0,1.12337 -0.404338,1.28877 -0.981977,0.40171 z m -1.039529,-10.27682 c 0,-0.35175 0.321122,-0.63954 0.713603,-0.63954 0.392481,0 0.526199,0.28779 0.29715,0.63954 -0.229049,0.35174 -0.55017,0.63954 -0.713603,0.63954 -0.163433,0 -0.29715,-0.2878 -0.29715,-0.63954 z m 7.4673,-32.23371 c -0.39449,-0.45114 -0.559857,-0.96964 -0.367481,-1.15222 0.599287,-0.56879 -5.447184,-15.37948 -7.572905,-18.54966 -2.201124,-3.282628 -5.954356,-6.896265 -7.178822,-6.911817 -0.424068,-0.0054 -1.225872,-0.317408 -1.781786,-0.693383 -0.767164,-0.518847 -0.470689,-0.595071 1.230204,-0.316286 2.385602,0.391013 6.331875,3.492051 7.808174,6.135776 0.491053,0.87937 1.842175,3.24822 3.002493,5.26411 1.160319,2.0159 2.10967,4.26122 2.10967,4.98961 0,0.72839 0.596495,2.38864 1.325544,3.68944 0.72905,1.3008 1.506702,3.4739 1.728116,4.8291 0.371934,2.27649 0.47455,2.37383 1.348366,1.27908 0.906281,-1.13543 0.946691,-1.12767 0.967226,0.18561 0.0255,1.63106 -1.605181,2.40981 -2.618799,1.25064 z m 3.052526,-5.01945 c 0.285656,-1.14318 0.493565,-2.72414 0.462018,-3.51324 -0.03155,-0.7891 0.159391,-1.30759 0.424308,-1.15219 0.264916,0.15539 1.036586,-1.21353 1.71482,-3.04205 2.317023,-6.24668 6.78978,-12.664884 9.924424,-14.241098 2.61245,-1.313637 3.914886,-1.121688 1.718067,0.253203 -4.45965,2.791099 -10.233904,11.772275 -12.920631,20.096525 -1.271113,3.93827 -2.182932,5.0402 -1.323006,1.59885 z"
         id="path746" />
    </g>
    <path
       style="fill:#000000;stroke:#dd0000;stroke-width:1;stroke-linecap:butt;stroke-linejoin:miter;stroke-opacity:1;stroke-miterlimit:4;stroke-dasharray:none;fill-opacity:0"
       d="M 95.706068,150.13181 95.658706,139.7393"
       id="path811" />
    <path
       style="fill:#ff2a2a;stroke:#dd0000;stroke-width:1;stroke-linecap:butt;stroke-linejoin:miter;stroke-opacity:1;stroke-miterlimit:4;stroke-dasharray:none"
       d="M 88.246518,144.81787 H 101.04939"
       id="path813" />
  </g>
</svg>
